<svg xmlns="http://www.w3.org/2000/svg" xmlns:xlink="http://www.w3.org/1999/xlink" width="1080" zoomAndPan="magnify" viewBox="0 0 810 809.999993" height="1080" preserveAspectRatio="xMidYMid meet" version="1.0"><defs><clipPath id="d635764eec"><path d="M 616 668 L 632.941406 668 L 632.941406 685 L 616 685 Z M 616 668 " clip-rule="nonzero"/></clipPath><clipPath id="748862ca09"><path d="M 616 653 L 632.941406 653 L 632.941406 669 L 616 669 Z M 616 653 " clip-rule="nonzero"/></clipPath><clipPath id="d521119ef7"><path d="M 616 621 L 632.941406 621 L 632.941406 638 L 616 638 Z M 616 621 " clip-rule="nonzero"/></clipPath><clipPath id="517a6d6155"><path d="M 616 605 L 632.941406 605 L 632.941406 622 L 616 622 Z M 616 605 " clip-rule="nonzero"/></clipPath><clipPath id="9eefb723b5"><path d="M 616 590 L 632.941406 590 L 632.941406 606 L 616 606 Z M 616 590 " clip-rule="nonzero"/></clipPath><clipPath id="6152365dcc"><path d="M 616 574 L 632.941406 574 L 632.941406 591 L 616 591 Z M 616 574 " clip-rule="nonzero"/></clipPath><clipPath id="dbd748192c"><path d="M 616 558 L 632.941406 558 L 632.941406 575 L 616 575 Z M 616 558 " clip-rule="nonzero"/></clipPath><clipPath id="d3f4cb70ec"><path d="M 616 543 L 632.941406 543 L 632.941406 559 L 616 559 Z M 616 543 " clip-rule="nonzero"/></clipPath><clipPath id="1d9a30ed9c"><path d="M 616 527 L 632.941406 527 L 632.941406 544 L 616 544 Z M 616 527 " clip-rule="nonzero"/></clipPath><clipPath id="211f57a3e2"><path d="M 459 150.160156 L 476 150.160156 L 476 166 L 459 166 Z M 459 150.160156 " clip-rule="nonzero"/></clipPath><clipPath id="b37e0d590a"><path d="M 444 150.160156 L 460 150.160156 L 460 166 L 444 166 Z M 444 150.160156 " clip-rule="nonzero"/></clipPath><clipPath id="fd62c2a625"><path d="M 428 150.160156 L 445 150.160156 L 445 166 L 428 166 Z M 428 150.160156 " clip-rule="nonzero"/></clipPath><clipPath id="4852315950"><path d="M 365 150.160156 L 382 150.160156 L 382 166 L 365 166 Z M 365 150.160156 " clip-rule="nonzero"/></clipPath><clipPath id="5133585508"><path d="M 349 150.160156 L 366 150.160156 L 366 166 L 349 166 Z M 349 150.160156 " clip-rule="nonzero"/></clipPath><clipPath id="ceea25912c"><path d="M 334 150.160156 L 350 150.160156 L 350 166 L 334 166 Z M 334 150.160156 " clip-rule="nonzero"/></clipPath></defs><rect x="-81" width="972" fill="#ffffff" y="-80.999999" height="971.999992" fill-opacity="1"/><rect x="-81" width="972" fill="#7826ab" y="-80.999999" height="971.999992" fill-opacity="1"/><g clip-path="url(#d635764eec)"><path fill="#ef322b" d="M 632.605469 668.824219 L 632.605469 684.542969 L 616.894531 684.542969 L 616.894531 668.824219 L 632.605469 668.824219 " fill-opacity="1" fill-rule="nonzero"/></g><g clip-path="url(#748862ca09)"><path fill="#ef322b" d="M 632.605469 653.101562 L 632.605469 668.824219 L 616.894531 668.824219 L 616.894531 653.101562 L 632.605469 653.101562 " fill-opacity="1" fill-rule="nonzero"/></g><g clip-path="url(#d521119ef7)"><path fill="#452616" d="M 632.605469 621.664062 L 632.605469 637.382812 L 616.894531 637.382812 L 616.894531 621.664062 L 632.605469 621.664062 " fill-opacity="1" fill-rule="nonzero"/></g><g clip-path="url(#517a6d6155)"><path fill="#452616" d="M 632.605469 605.964844 L 632.605469 621.664062 L 616.894531 621.664062 L 616.894531 605.964844 L 632.605469 605.964844 " fill-opacity="1" fill-rule="nonzero"/></g><g clip-path="url(#9eefb723b5)"><path fill="#452616" d="M 632.605469 590.246094 L 632.605469 605.964844 L 616.894531 605.964844 L 616.894531 590.246094 L 632.605469 590.246094 " fill-opacity="1" fill-rule="nonzero"/></g><g clip-path="url(#6152365dcc)"><path fill="#452616" d="M 632.605469 574.527344 L 632.605469 590.246094 L 616.894531 590.246094 L 616.894531 574.527344 L 632.605469 574.527344 " fill-opacity="1" fill-rule="nonzero"/></g><g clip-path="url(#dbd748192c)"><path fill="#452616" d="M 632.605469 558.804688 L 632.605469 574.527344 L 616.894531 574.527344 L 616.894531 558.804688 L 632.605469 558.804688 " fill-opacity="1" fill-rule="nonzero"/></g><g clip-path="url(#d3f4cb70ec)"><path fill="#452616" d="M 632.605469 543.085938 L 632.605469 558.804688 L 616.894531 558.804688 L 616.894531 543.085938 L 632.605469 543.085938 " fill-opacity="1" fill-rule="nonzero"/></g><g clip-path="url(#1d9a30ed9c)"><path fill="#452616" d="M 632.605469 527.367188 L 632.605469 543.085938 L 616.894531 543.085938 L 616.894531 527.367188 L 632.605469 527.367188 " fill-opacity="1" fill-rule="nonzero"/></g><path fill="#ef322b" d="M 616.894531 653.101562 L 616.894531 668.824219 L 601.203125 668.824219 L 601.203125 653.101562 L 616.894531 653.101562 " fill-opacity="1" fill-rule="nonzero"/><path fill="#ef322b" d="M 616.894531 637.382812 L 616.894531 653.101562 L 601.203125 653.101562 L 601.203125 637.382812 L 616.894531 637.382812 " fill-opacity="1" fill-rule="nonzero"/><path fill="#452616" d="M 616.894531 621.664062 L 616.894531 637.382812 L 601.203125 637.382812 L 601.203125 621.664062 L 616.894531 621.664062 " fill-opacity="1" fill-rule="nonzero"/><path fill="#452616" d="M 616.894531 605.964844 L 616.894531 621.664062 L 601.203125 621.664062 L 601.203125 605.964844 L 616.894531 605.964844 " fill-opacity="1" fill-rule="nonzero"/><path fill="#e6c812" d="M 616.894531 590.246094 L 616.894531 605.964844 L 601.203125 605.964844 L 601.203125 590.246094 L 616.894531 590.246094 " fill-opacity="1" fill-rule="nonzero"/><path fill="#e6c812" d="M 616.894531 574.527344 L 616.894531 590.246094 L 601.203125 590.246094 L 601.203125 574.527344 L 616.894531 574.527344 " fill-opacity="1" fill-rule="nonzero"/><path fill="#452616" d="M 616.894531 558.804688 L 616.894531 574.527344 L 601.203125 574.527344 L 601.203125 558.804688 L 616.894531 558.804688 " fill-opacity="1" fill-rule="nonzero"/><path fill="#ef322b" d="M 616.894531 543.085938 L 616.894531 558.804688 L 601.203125 558.804688 L 601.203125 543.085938 L 616.894531 543.085938 " fill-opacity="1" fill-rule="nonzero"/><path fill="#452616" d="M 616.894531 527.367188 L 616.894531 543.085938 L 601.203125 543.085938 L 601.203125 527.367188 L 616.894531 527.367188 " fill-opacity="1" fill-rule="nonzero"/><path fill="#452616" d="M 616.894531 511.667969 L 616.894531 527.367188 L 601.203125 527.367188 L 601.203125 511.667969 L 616.894531 511.667969 " fill-opacity="1" fill-rule="nonzero"/><path fill="#452616" d="M 616.894531 495.949219 L 616.894531 511.667969 L 601.203125 511.667969 L 601.203125 495.949219 L 616.894531 495.949219 " fill-opacity="1" fill-rule="nonzero"/><path fill="#ef322b" d="M 601.203125 668.824219 L 601.203125 684.542969 L 585.492188 684.542969 L 585.492188 668.824219 L 601.203125 668.824219 " fill-opacity="1" fill-rule="nonzero"/><path fill="#ef322b" d="M 601.203125 653.101562 L 601.203125 668.824219 L 585.492188 668.824219 L 585.492188 653.101562 L 601.203125 653.101562 " fill-opacity="1" fill-rule="nonzero"/><path fill="#452616" d="M 601.203125 621.664062 L 601.203125 637.382812 L 585.492188 637.382812 L 585.492188 621.664062 L 601.203125 621.664062 " fill-opacity="1" fill-rule="nonzero"/><path fill="#452616" d="M 601.203125 605.964844 L 601.203125 621.664062 L 585.492188 621.664062 L 585.492188 605.964844 L 601.203125 605.964844 " fill-opacity="1" fill-rule="nonzero"/><path fill="#452616" d="M 601.203125 590.246094 L 601.203125 605.964844 L 585.492188 605.964844 L 585.492188 590.246094 L 601.203125 590.246094 " fill-opacity="1" fill-rule="nonzero"/><path fill="#452616" d="M 601.203125 574.527344 L 601.203125 590.246094 L 585.492188 590.246094 L 585.492188 574.527344 L 601.203125 574.527344 " fill-opacity="1" fill-rule="nonzero"/><path fill="#452616" d="M 601.203125 558.804688 L 601.203125 574.527344 L 585.492188 574.527344 L 585.492188 558.804688 L 601.203125 558.804688 " fill-opacity="1" fill-rule="nonzero"/><path fill="#452616" d="M 601.203125 543.085938 L 601.203125 558.804688 L 585.492188 558.804688 L 585.492188 543.085938 L 601.203125 543.085938 " fill-opacity="1" fill-rule="nonzero"/><path fill="#452616" d="M 601.203125 527.367188 L 601.203125 543.085938 L 585.492188 543.085938 L 585.492188 527.367188 L 601.203125 527.367188 " fill-opacity="1" fill-rule="nonzero"/><path fill="#452616" d="M 601.203125 511.667969 L 601.203125 527.367188 L 585.492188 527.367188 L 585.492188 511.667969 L 601.203125 511.667969 " fill-opacity="1" fill-rule="nonzero"/><path fill="#452616" d="M 601.203125 495.949219 L 601.203125 511.667969 L 585.492188 511.667969 L 585.492188 495.949219 L 601.203125 495.949219 " fill-opacity="1" fill-rule="nonzero"/><path fill="#452616" d="M 601.203125 480.230469 L 601.203125 495.949219 L 585.492188 495.949219 L 585.492188 480.230469 L 601.203125 480.230469 " fill-opacity="1" fill-rule="nonzero"/><path fill="#452616" d="M 585.492188 495.949219 L 585.492188 511.667969 L 569.777344 511.667969 L 569.777344 495.949219 L 585.492188 495.949219 " fill-opacity="1" fill-rule="nonzero"/><path fill="#452616" d="M 585.492188 480.230469 L 585.492188 495.949219 L 569.777344 495.949219 L 569.777344 480.230469 L 585.492188 480.230469 " fill-opacity="1" fill-rule="nonzero"/><path fill="#f26f1b" d="M 569.777344 511.667969 L 569.777344 527.367188 L 554.066406 527.367188 L 554.066406 511.667969 L 569.777344 511.667969 " fill-opacity="1" fill-rule="nonzero"/><path fill="#f26f1b" d="M 569.777344 495.949219 L 569.777344 511.667969 L 554.066406 511.667969 L 554.066406 495.949219 L 569.777344 495.949219 " fill-opacity="1" fill-rule="nonzero"/><path fill="#f26f1b" d="M 569.777344 480.230469 L 569.777344 495.949219 L 554.066406 495.949219 L 554.066406 480.230469 L 569.777344 480.230469 " fill-opacity="1" fill-rule="nonzero"/><path fill="#f26f1b" d="M 569.777344 464.507812 L 569.777344 480.230469 L 554.066406 480.230469 L 554.066406 464.507812 L 569.777344 464.507812 " fill-opacity="1" fill-rule="nonzero"/><path fill="#439f92" d="M 554.066406 543.085938 L 554.066406 558.804688 L 538.355469 558.804688 L 538.355469 543.085938 L 554.066406 543.085938 " fill-opacity="1" fill-rule="nonzero"/><path fill="#439f92" d="M 554.066406 527.367188 L 554.066406 543.085938 L 538.355469 543.085938 L 538.355469 527.367188 L 554.066406 527.367188 " fill-opacity="1" fill-rule="nonzero"/><path fill="#439f92" d="M 554.066406 511.667969 L 554.066406 527.367188 L 538.355469 527.367188 L 538.355469 511.667969 L 554.066406 511.667969 " fill-opacity="1" fill-rule="nonzero"/><path fill="#439f92" d="M 554.066406 495.949219 L 554.066406 511.667969 L 538.355469 511.667969 L 538.355469 495.949219 L 554.066406 495.949219 " fill-opacity="1" fill-rule="nonzero"/><path fill="#439f92" d="M 554.066406 480.230469 L 554.066406 495.949219 L 538.355469 495.949219 L 538.355469 480.230469 L 554.066406 480.230469 " fill-opacity="1" fill-rule="nonzero"/><path fill="#439f92" d="M 554.066406 464.507812 L 554.066406 480.230469 L 538.355469 480.230469 L 538.355469 464.507812 L 554.066406 464.507812 " fill-opacity="1" fill-rule="nonzero"/><path fill="#439f92" d="M 554.066406 448.789062 L 554.066406 464.507812 L 538.355469 464.507812 L 538.355469 448.789062 L 554.066406 448.789062 " fill-opacity="1" fill-rule="nonzero"/><path fill="#439f92" d="M 554.066406 433.089844 L 554.066406 448.789062 L 538.355469 448.789062 L 538.355469 433.089844 L 554.066406 433.089844 " fill-opacity="1" fill-rule="nonzero"/><path fill="#2b686a" d="M 538.355469 574.527344 L 538.355469 590.246094 L 522.65625 590.246094 L 522.65625 574.527344 L 538.355469 574.527344 " fill-opacity="1" fill-rule="nonzero"/><path fill="#2b686a" d="M 538.355469 558.804688 L 538.355469 574.527344 L 522.65625 574.527344 L 522.65625 558.804688 L 538.355469 558.804688 " fill-opacity="1" fill-rule="nonzero"/><path fill="#439f92" d="M 538.355469 543.085938 L 538.355469 558.804688 L 522.65625 558.804688 L 522.65625 543.085938 L 538.355469 543.085938 " fill-opacity="1" fill-rule="nonzero"/><path fill="#439f92" d="M 538.355469 527.367188 L 538.355469 543.085938 L 522.65625 543.085938 L 522.65625 527.367188 L 538.355469 527.367188 " fill-opacity="1" fill-rule="nonzero"/><path fill="#439f92" d="M 538.355469 511.667969 L 538.355469 527.367188 L 522.65625 527.367188 L 522.65625 511.667969 L 538.355469 511.667969 " fill-opacity="1" fill-rule="nonzero"/><path fill="#439f92" d="M 538.355469 495.949219 L 538.355469 511.667969 L 522.65625 511.667969 L 522.65625 495.949219 L 538.355469 495.949219 " fill-opacity="1" fill-rule="nonzero"/><path fill="#439f92" d="M 538.355469 480.230469 L 538.355469 495.949219 L 522.65625 495.949219 L 522.65625 480.230469 L 538.355469 480.230469 " fill-opacity="1" fill-rule="nonzero"/><path fill="#439f92" d="M 538.355469 464.507812 L 538.355469 480.230469 L 522.65625 480.230469 L 522.65625 464.507812 L 538.355469 464.507812 " fill-opacity="1" fill-rule="nonzero"/><path fill="#439f92" d="M 538.355469 448.789062 L 538.355469 464.507812 L 522.65625 464.507812 L 522.65625 448.789062 L 538.355469 448.789062 " fill-opacity="1" fill-rule="nonzero"/><path fill="#439f92" d="M 538.355469 433.089844 L 538.355469 448.789062 L 522.65625 448.789062 L 522.65625 433.089844 L 538.355469 433.089844 " fill-opacity="1" fill-rule="nonzero"/><path fill="#439f92" d="M 538.355469 417.371094 L 538.355469 433.089844 L 522.65625 433.089844 L 522.65625 417.371094 L 538.355469 417.371094 " fill-opacity="1" fill-rule="nonzero"/><path fill="#439f92" d="M 538.355469 401.652344 L 538.355469 417.371094 L 522.65625 417.371094 L 522.65625 401.652344 L 538.355469 401.652344 " fill-opacity="1" fill-rule="nonzero"/><path fill="#439f92" d="M 538.355469 385.933594 L 538.355469 401.652344 L 522.65625 401.652344 L 522.65625 385.933594 L 538.355469 385.933594 " fill-opacity="1" fill-rule="nonzero"/><path fill="#ef322b" d="M 522.65625 794.542969 L 522.65625 810.265625 L 506.953125 810.265625 L 506.953125 794.542969 L 522.65625 794.542969 " fill-opacity="1" fill-rule="nonzero"/><path fill="#2b686a" d="M 522.65625 590.246094 L 522.65625 605.964844 L 506.953125 605.964844 L 506.953125 590.246094 L 522.65625 590.246094 " fill-opacity="1" fill-rule="nonzero"/><path fill="#2b686a" d="M 522.65625 574.527344 L 522.65625 590.246094 L 506.953125 590.246094 L 506.953125 574.527344 L 522.65625 574.527344 " fill-opacity="1" fill-rule="nonzero"/><path fill="#2b686a" d="M 522.65625 558.804688 L 522.65625 574.527344 L 506.953125 574.527344 L 506.953125 558.804688 L 522.65625 558.804688 " fill-opacity="1" fill-rule="nonzero"/><path fill="#439f92" d="M 522.65625 543.085938 L 522.65625 558.804688 L 506.953125 558.804688 L 506.953125 543.085938 L 522.65625 543.085938 " fill-opacity="1" fill-rule="nonzero"/><path fill="#439f92" d="M 522.65625 527.367188 L 522.65625 543.085938 L 506.953125 543.085938 L 506.953125 527.367188 L 522.65625 527.367188 " fill-opacity="1" fill-rule="nonzero"/><path fill="#439f92" d="M 522.65625 511.667969 L 522.65625 527.367188 L 506.953125 527.367188 L 506.953125 511.667969 L 522.65625 511.667969 " fill-opacity="1" fill-rule="nonzero"/><path fill="#439f92" d="M 522.65625 495.949219 L 522.65625 511.667969 L 506.953125 511.667969 L 506.953125 495.949219 L 522.65625 495.949219 " fill-opacity="1" fill-rule="nonzero"/><path fill="#52b8a9" d="M 522.65625 480.230469 L 522.65625 495.949219 L 506.953125 495.949219 L 506.953125 480.230469 L 522.65625 480.230469 " fill-opacity="1" fill-rule="nonzero"/><path fill="#52b8a9" d="M 522.65625 464.507812 L 522.65625 480.230469 L 506.953125 480.230469 L 506.953125 464.507812 L 522.65625 464.507812 " fill-opacity="1" fill-rule="nonzero"/><path fill="#52b8a9" d="M 522.65625 448.789062 L 522.65625 464.507812 L 506.953125 464.507812 L 506.953125 448.789062 L 522.65625 448.789062 " fill-opacity="1" fill-rule="nonzero"/><path fill="#52b8a9" d="M 522.65625 433.089844 L 522.65625 448.789062 L 506.953125 448.789062 L 506.953125 433.089844 L 522.65625 433.089844 " fill-opacity="1" fill-rule="nonzero"/><path fill="#52b8a9" d="M 522.65625 417.371094 L 522.65625 433.089844 L 506.953125 433.089844 L 506.953125 417.371094 L 522.65625 417.371094 " fill-opacity="1" fill-rule="nonzero"/><path fill="#52b8a9" d="M 522.65625 401.652344 L 522.65625 417.371094 L 506.953125 417.371094 L 506.953125 401.652344 L 522.65625 401.652344 " fill-opacity="1" fill-rule="nonzero"/><path fill="#439f92" d="M 522.65625 385.933594 L 522.65625 401.652344 L 506.953125 401.652344 L 506.953125 385.933594 L 522.65625 385.933594 " fill-opacity="1" fill-rule="nonzero"/><path fill="#439f92" d="M 522.65625 370.214844 L 522.65625 385.933594 L 506.953125 385.933594 L 506.953125 370.214844 L 522.65625 370.214844 " fill-opacity="1" fill-rule="nonzero"/><path fill="#439f92" d="M 522.65625 354.507812 L 522.65625 370.214844 L 506.953125 370.214844 L 506.953125 354.507812 L 522.65625 354.507812 " fill-opacity="1" fill-rule="nonzero"/><path fill="#439f92" d="M 522.65625 338.789062 L 522.65625 354.507812 L 506.953125 354.507812 L 506.953125 338.789062 L 522.65625 338.789062 " fill-opacity="1" fill-rule="nonzero"/><path fill="#52b8a9" d="M 522.65625 323.066406 L 522.65625 338.789062 L 506.953125 338.789062 L 506.953125 323.066406 L 522.65625 323.066406 " fill-opacity="1" fill-rule="nonzero"/><path fill="#ef322b" d="M 506.953125 794.542969 L 506.953125 810.265625 L 491.238281 810.265625 L 491.238281 794.542969 L 506.953125 794.542969 " fill-opacity="1" fill-rule="nonzero"/><path fill="#ef322b" d="M 506.953125 778.824219 L 506.953125 794.542969 L 491.238281 794.542969 L 491.238281 778.824219 L 506.953125 778.824219 " fill-opacity="1" fill-rule="nonzero"/><path fill="#2b686a" d="M 506.953125 590.246094 L 506.953125 605.964844 L 491.238281 605.964844 L 491.238281 590.246094 L 506.953125 590.246094 " fill-opacity="1" fill-rule="nonzero"/><path fill="#2b686a" d="M 506.953125 574.527344 L 506.953125 590.246094 L 491.238281 590.246094 L 491.238281 574.527344 L 506.953125 574.527344 " fill-opacity="1" fill-rule="nonzero"/><path fill="#33787b" d="M 506.953125 558.804688 L 506.953125 574.527344 L 491.238281 574.527344 L 491.238281 558.804688 L 506.953125 558.804688 " fill-opacity="1" fill-rule="nonzero"/><path fill="#439f92" d="M 506.953125 543.085938 L 506.953125 558.804688 L 491.238281 558.804688 L 491.238281 543.085938 L 506.953125 543.085938 " fill-opacity="1" fill-rule="nonzero"/><path fill="#439f92" d="M 506.953125 527.367188 L 506.953125 543.085938 L 491.238281 543.085938 L 491.238281 527.367188 L 506.953125 527.367188 " fill-opacity="1" fill-rule="nonzero"/><path fill="#439f92" d="M 506.953125 511.667969 L 506.953125 527.367188 L 491.238281 527.367188 L 491.238281 511.667969 L 506.953125 511.667969 " fill-opacity="1" fill-rule="nonzero"/><path fill="#52b8a9" d="M 506.953125 495.949219 L 506.953125 511.667969 L 491.238281 511.667969 L 491.238281 495.949219 L 506.953125 495.949219 " fill-opacity="1" fill-rule="nonzero"/><path fill="#52b8a9" d="M 506.953125 480.230469 L 506.953125 495.949219 L 491.238281 495.949219 L 491.238281 480.230469 L 506.953125 480.230469 " fill-opacity="1" fill-rule="nonzero"/><path fill="#52b8a9" d="M 506.953125 464.507812 L 506.953125 480.230469 L 491.238281 480.230469 L 491.238281 464.507812 L 506.953125 464.507812 " fill-opacity="1" fill-rule="nonzero"/><path fill="#52b8a9" d="M 506.953125 448.789062 L 506.953125 464.507812 L 491.238281 464.507812 L 491.238281 448.789062 L 506.953125 448.789062 " fill-opacity="1" fill-rule="nonzero"/><path fill="#52b8a9" d="M 506.953125 433.089844 L 506.953125 448.789062 L 491.238281 448.789062 L 491.238281 433.089844 L 506.953125 433.089844 " fill-opacity="1" fill-rule="nonzero"/><path fill="#52b8a9" d="M 506.953125 417.371094 L 506.953125 433.089844 L 491.238281 433.089844 L 491.238281 417.371094 L 506.953125 417.371094 " fill-opacity="1" fill-rule="nonzero"/><path fill="#52b8a9" d="M 506.953125 401.652344 L 506.953125 417.371094 L 491.238281 417.371094 L 491.238281 401.652344 L 506.953125 401.652344 " fill-opacity="1" fill-rule="nonzero"/><path fill="#52b8a9" d="M 506.953125 385.933594 L 506.953125 401.652344 L 491.238281 401.652344 L 491.238281 385.933594 L 506.953125 385.933594 " fill-opacity="1" fill-rule="nonzero"/><path fill="#52b8a9" d="M 506.953125 370.214844 L 506.953125 385.933594 L 491.238281 385.933594 L 491.238281 370.214844 L 506.953125 370.214844 " fill-opacity="1" fill-rule="nonzero"/><path fill="#52b8a9" d="M 506.953125 354.507812 L 506.953125 370.214844 L 491.238281 370.214844 L 491.238281 354.507812 L 506.953125 354.507812 " fill-opacity="1" fill-rule="nonzero"/><path fill="#52b8a9" d="M 506.953125 338.789062 L 506.953125 354.507812 L 491.238281 354.507812 L 491.238281 338.789062 L 506.953125 338.789062 " fill-opacity="1" fill-rule="nonzero"/><path fill="#52b8a9" d="M 506.953125 323.066406 L 506.953125 338.789062 L 491.238281 338.789062 L 491.238281 323.066406 L 506.953125 323.066406 " fill-opacity="1" fill-rule="nonzero"/><path fill="#52b8a9" d="M 506.953125 307.347656 L 506.953125 323.066406 L 491.238281 323.066406 L 491.238281 307.347656 L 506.953125 307.347656 " fill-opacity="1" fill-rule="nonzero"/><path fill="#ef322b" d="M 491.238281 794.542969 L 491.238281 810.265625 L 475.527344 810.265625 L 475.527344 794.542969 L 491.238281 794.542969 " fill-opacity="1" fill-rule="nonzero"/><path fill="#ef322b" d="M 491.238281 778.824219 L 491.238281 794.542969 L 475.527344 794.542969 L 475.527344 778.824219 L 491.238281 778.824219 " fill-opacity="1" fill-rule="nonzero"/><path fill="#2b686a" d="M 491.238281 621.664062 L 491.238281 637.382812 L 475.527344 637.382812 L 475.527344 621.664062 L 491.238281 621.664062 " fill-opacity="1" fill-rule="nonzero"/><path fill="#2b686a" d="M 491.238281 605.964844 L 491.238281 621.664062 L 475.527344 621.664062 L 475.527344 605.964844 L 491.238281 605.964844 " fill-opacity="1" fill-rule="nonzero"/><path fill="#2b686a" d="M 491.238281 590.246094 L 491.238281 605.964844 L 475.527344 605.964844 L 475.527344 590.246094 L 491.238281 590.246094 " fill-opacity="1" fill-rule="nonzero"/><path fill="#33787b" d="M 491.238281 574.527344 L 491.238281 590.246094 L 475.527344 590.246094 L 475.527344 574.527344 L 491.238281 574.527344 " fill-opacity="1" fill-rule="nonzero"/><path fill="#33787b" d="M 491.238281 558.804688 L 491.238281 574.527344 L 475.527344 574.527344 L 475.527344 558.804688 L 491.238281 558.804688 " fill-opacity="1" fill-rule="nonzero"/><path fill="#439f92" d="M 491.238281 543.085938 L 491.238281 558.804688 L 475.527344 558.804688 L 475.527344 543.085938 L 491.238281 543.085938 " fill-opacity="1" fill-rule="nonzero"/><path fill="#452616" d="M 491.238281 527.367188 L 491.238281 543.085938 L 475.527344 543.085938 L 475.527344 527.367188 L 491.238281 527.367188 " fill-opacity="1" fill-rule="nonzero"/><path fill="#452616" d="M 491.238281 511.667969 L 491.238281 527.367188 L 475.527344 527.367188 L 475.527344 511.667969 L 491.238281 511.667969 " fill-opacity="1" fill-rule="nonzero"/><path fill="#452616" d="M 491.238281 495.949219 L 491.238281 511.667969 L 475.527344 511.667969 L 475.527344 495.949219 L 491.238281 495.949219 " fill-opacity="1" fill-rule="nonzero"/><path fill="#52b8a9" d="M 491.238281 480.230469 L 491.238281 495.949219 L 475.527344 495.949219 L 475.527344 480.230469 L 491.238281 480.230469 " fill-opacity="1" fill-rule="nonzero"/><path fill="#47a799" d="M 491.238281 464.507812 L 491.238281 480.230469 L 475.527344 480.230469 L 475.527344 464.507812 L 491.238281 464.507812 " fill-opacity="1" fill-rule="nonzero"/><path fill="#47a799" d="M 491.238281 448.789062 L 491.238281 464.507812 L 475.527344 464.507812 L 475.527344 448.789062 L 491.238281 448.789062 " fill-opacity="1" fill-rule="nonzero"/><path fill="#47a799" d="M 491.238281 433.089844 L 491.238281 448.789062 L 475.527344 448.789062 L 475.527344 433.089844 L 491.238281 433.089844 " fill-opacity="1" fill-rule="nonzero"/><path fill="#52b8a9" d="M 491.238281 417.371094 L 491.238281 433.089844 L 475.527344 433.089844 L 475.527344 417.371094 L 491.238281 417.371094 " fill-opacity="1" fill-rule="nonzero"/><path fill="#52b8a9" d="M 491.238281 401.652344 L 491.238281 417.371094 L 475.527344 417.371094 L 475.527344 401.652344 L 491.238281 401.652344 " fill-opacity="1" fill-rule="nonzero"/><path fill="#52b8a9" d="M 491.238281 385.933594 L 491.238281 401.652344 L 475.527344 401.652344 L 475.527344 385.933594 L 491.238281 385.933594 " fill-opacity="1" fill-rule="nonzero"/><path fill="#52b8a9" d="M 491.238281 370.214844 L 491.238281 385.933594 L 475.527344 385.933594 L 475.527344 370.214844 L 491.238281 370.214844 " fill-opacity="1" fill-rule="nonzero"/><path fill="#52b8a9" d="M 491.238281 354.507812 L 491.238281 370.214844 L 475.527344 370.214844 L 475.527344 354.507812 L 491.238281 354.507812 " fill-opacity="1" fill-rule="nonzero"/><path fill="#52b8a9" d="M 491.238281 338.789062 L 491.238281 354.507812 L 475.527344 354.507812 L 475.527344 338.789062 L 491.238281 338.789062 " fill-opacity="1" fill-rule="nonzero"/><path fill="#52b8a9" d="M 491.238281 323.066406 L 491.238281 338.789062 L 475.527344 338.789062 L 475.527344 323.066406 L 491.238281 323.066406 " fill-opacity="1" fill-rule="nonzero"/><path fill="#52b8a9" d="M 491.238281 307.347656 L 491.238281 323.066406 L 475.527344 323.066406 L 475.527344 307.347656 L 491.238281 307.347656 " fill-opacity="1" fill-rule="nonzero"/><path fill="#52b8a9" d="M 491.238281 291.628906 L 491.238281 307.347656 L 475.527344 307.347656 L 475.527344 291.628906 L 491.238281 291.628906 " fill-opacity="1" fill-rule="nonzero"/><path fill="#ef322b" d="M 475.527344 794.542969 L 475.527344 810.265625 L 459.816406 810.265625 L 459.816406 794.542969 L 475.527344 794.542969 " fill-opacity="1" fill-rule="nonzero"/><path fill="#ef322b" d="M 475.527344 778.824219 L 475.527344 794.542969 L 459.816406 794.542969 L 459.816406 778.824219 L 475.527344 778.824219 " fill-opacity="1" fill-rule="nonzero"/><path fill="#452616" d="M 475.527344 763.117188 L 475.527344 778.824219 L 459.816406 778.824219 L 459.816406 763.117188 L 475.527344 763.117188 " fill-opacity="1" fill-rule="nonzero"/><path fill="#bdbcbc" d="M 475.527344 747.398438 L 475.527344 763.117188 L 459.816406 763.117188 L 459.816406 747.398438 L 475.527344 747.398438 " fill-opacity="1" fill-rule="nonzero"/><path fill="#452616" d="M 475.527344 731.6875 L 475.527344 747.398438 L 459.816406 747.398438 L 459.816406 731.6875 L 475.527344 731.6875 " fill-opacity="1" fill-rule="nonzero"/><path fill="#bdbcbc" d="M 475.527344 715.96875 L 475.527344 731.6875 L 459.816406 731.6875 L 459.816406 715.96875 L 475.527344 715.96875 " fill-opacity="1" fill-rule="nonzero"/><path fill="#452616" d="M 475.527344 700.246094 L 475.527344 715.96875 L 459.816406 715.96875 L 459.816406 700.246094 L 475.527344 700.246094 " fill-opacity="1" fill-rule="nonzero"/><path fill="#bdbcbc" d="M 475.527344 684.542969 L 475.527344 700.246094 L 459.816406 700.246094 L 459.816406 684.542969 L 475.527344 684.542969 " fill-opacity="1" fill-rule="nonzero"/><path fill="#452616" d="M 475.527344 668.824219 L 475.527344 684.542969 L 459.816406 684.542969 L 459.816406 668.824219 L 475.527344 668.824219 " fill-opacity="1" fill-rule="nonzero"/><path fill="#bdbcbc" d="M 475.527344 653.101562 L 475.527344 668.824219 L 459.816406 668.824219 L 459.816406 653.101562 L 475.527344 653.101562 " fill-opacity="1" fill-rule="nonzero"/><path fill="#452616" d="M 475.527344 637.382812 L 475.527344 653.101562 L 459.816406 653.101562 L 459.816406 637.382812 L 475.527344 637.382812 " fill-opacity="1" fill-rule="nonzero"/><path fill="#47a799" d="M 475.527344 621.664062 L 475.527344 637.382812 L 459.816406 637.382812 L 459.816406 621.664062 L 475.527344 621.664062 " fill-opacity="1" fill-rule="nonzero"/><path fill="#47a799" d="M 475.527344 605.964844 L 475.527344 621.664062 L 459.816406 621.664062 L 459.816406 605.964844 L 475.527344 605.964844 " fill-opacity="1" fill-rule="nonzero"/><path fill="#33787b" d="M 475.527344 590.246094 L 475.527344 605.964844 L 459.816406 605.964844 L 459.816406 590.246094 L 475.527344 590.246094 " fill-opacity="1" fill-rule="nonzero"/><path fill="#33787b" d="M 475.527344 574.527344 L 475.527344 590.246094 L 459.816406 590.246094 L 459.816406 574.527344 L 475.527344 574.527344 " fill-opacity="1" fill-rule="nonzero"/><path fill="#33787b" d="M 475.527344 558.804688 L 475.527344 574.527344 L 459.816406 574.527344 L 459.816406 558.804688 L 475.527344 558.804688 " fill-opacity="1" fill-rule="nonzero"/><path fill="#439f92" d="M 475.527344 543.085938 L 475.527344 558.804688 L 459.816406 558.804688 L 459.816406 543.085938 L 475.527344 543.085938 " fill-opacity="1" fill-rule="nonzero"/><path fill="#452616" d="M 475.527344 527.367188 L 475.527344 543.085938 L 459.816406 543.085938 L 459.816406 527.367188 L 475.527344 527.367188 " fill-opacity="1" fill-rule="nonzero"/><path fill="#452616" d="M 475.527344 511.667969 L 475.527344 527.367188 L 459.816406 527.367188 L 459.816406 511.667969 L 475.527344 511.667969 " fill-opacity="1" fill-rule="nonzero"/><path fill="#452616" d="M 475.527344 495.949219 L 475.527344 511.667969 L 459.816406 511.667969 L 459.816406 495.949219 L 475.527344 495.949219 " fill-opacity="1" fill-rule="nonzero"/><path fill="#52b8a9" d="M 475.527344 480.230469 L 475.527344 495.949219 L 459.816406 495.949219 L 459.816406 480.230469 L 475.527344 480.230469 " fill-opacity="1" fill-rule="nonzero"/><path fill="#47a799" d="M 475.527344 464.507812 L 475.527344 480.230469 L 459.816406 480.230469 L 459.816406 464.507812 L 475.527344 464.507812 " fill-opacity="1" fill-rule="nonzero"/><path fill="#ffffff" d="M 475.527344 448.789062 L 475.527344 464.507812 L 459.816406 464.507812 L 459.816406 448.789062 L 475.527344 448.789062 " fill-opacity="1" fill-rule="nonzero"/><path fill="#ffffff" d="M 475.527344 433.089844 L 475.527344 448.789062 L 459.816406 448.789062 L 459.816406 433.089844 L 475.527344 433.089844 " fill-opacity="1" fill-rule="nonzero"/><path fill="#52b8a9" d="M 475.527344 417.371094 L 475.527344 433.089844 L 459.816406 433.089844 L 459.816406 417.371094 L 475.527344 417.371094 " fill-opacity="1" fill-rule="nonzero"/><path fill="#52b8a9" d="M 475.527344 401.652344 L 475.527344 417.371094 L 459.816406 417.371094 L 459.816406 401.652344 L 475.527344 401.652344 " fill-opacity="1" fill-rule="nonzero"/><path fill="#52b8a9" d="M 475.527344 385.933594 L 475.527344 401.652344 L 459.816406 401.652344 L 459.816406 385.933594 L 475.527344 385.933594 " fill-opacity="1" fill-rule="nonzero"/><path fill="#52b8a9" d="M 475.527344 370.214844 L 475.527344 385.933594 L 459.816406 385.933594 L 459.816406 370.214844 L 475.527344 370.214844 " fill-opacity="1" fill-rule="nonzero"/><path fill="#52b8a9" d="M 475.527344 354.507812 L 475.527344 370.214844 L 459.816406 370.214844 L 459.816406 354.507812 L 475.527344 354.507812 " fill-opacity="1" fill-rule="nonzero"/><path fill="#52b8a9" d="M 475.527344 338.789062 L 475.527344 354.507812 L 459.816406 354.507812 L 459.816406 338.789062 L 475.527344 338.789062 " fill-opacity="1" fill-rule="nonzero"/><path fill="#52b8a9" d="M 475.527344 323.066406 L 475.527344 338.789062 L 459.816406 338.789062 L 459.816406 323.066406 L 475.527344 323.066406 " fill-opacity="1" fill-rule="nonzero"/><path fill="#52b8a9" d="M 475.527344 307.347656 L 475.527344 323.066406 L 459.816406 323.066406 L 459.816406 307.347656 L 475.527344 307.347656 " fill-opacity="1" fill-rule="nonzero"/><path fill="#52b8a9" d="M 475.527344 291.628906 L 475.527344 307.347656 L 459.816406 307.347656 L 459.816406 291.628906 L 475.527344 291.628906 " fill-opacity="1" fill-rule="nonzero"/><path fill="#52b8a9" d="M 475.527344 275.929688 L 475.527344 291.628906 L 459.816406 291.628906 L 459.816406 275.929688 L 475.527344 275.929688 " fill-opacity="1" fill-rule="nonzero"/><path fill="#452616" d="M 475.527344 181.632812 L 475.527344 197.332031 L 459.816406 197.332031 L 459.816406 181.632812 L 475.527344 181.632812 " fill-opacity="1" fill-rule="nonzero"/><path fill="#452616" d="M 475.527344 165.914062 L 475.527344 181.632812 L 459.816406 181.632812 L 459.816406 165.914062 L 475.527344 165.914062 " fill-opacity="1" fill-rule="nonzero"/><g clip-path="url(#211f57a3e2)"><path fill="#452616" d="M 475.527344 150.195312 L 475.527344 165.914062 L 459.816406 165.914062 L 459.816406 150.195312 L 475.527344 150.195312 " fill-opacity="1" fill-rule="nonzero"/></g><path fill="#ef322b" d="M 459.816406 794.542969 L 459.816406 810.265625 L 444.117188 810.265625 L 444.117188 794.542969 L 459.816406 794.542969 " fill-opacity="1" fill-rule="nonzero"/><path fill="#ef322b" d="M 459.816406 778.824219 L 459.816406 794.542969 L 444.117188 794.542969 L 444.117188 778.824219 L 459.816406 778.824219 " fill-opacity="1" fill-rule="nonzero"/><path fill="#452616" d="M 459.816406 763.117188 L 459.816406 778.824219 L 444.117188 778.824219 L 444.117188 763.117188 L 459.816406 763.117188 " fill-opacity="1" fill-rule="nonzero"/><path fill="#e9e9e9" d="M 459.816406 747.398438 L 459.816406 763.117188 L 444.117188 763.117188 L 444.117188 747.398438 L 459.816406 747.398438 " fill-opacity="1" fill-rule="nonzero"/><path fill="#452616" d="M 459.816406 731.6875 L 459.816406 747.398438 L 444.117188 747.398438 L 444.117188 731.6875 L 459.816406 731.6875 " fill-opacity="1" fill-rule="nonzero"/><path fill="#e9e9e9" d="M 459.816406 715.96875 L 459.816406 731.6875 L 444.117188 731.6875 L 444.117188 715.96875 L 459.816406 715.96875 " fill-opacity="1" fill-rule="nonzero"/><path fill="#452616" d="M 459.816406 700.246094 L 459.816406 715.96875 L 444.117188 715.96875 L 444.117188 700.246094 L 459.816406 700.246094 " fill-opacity="1" fill-rule="nonzero"/><path fill="#e9e9e9" d="M 459.816406 684.542969 L 459.816406 700.246094 L 444.117188 700.246094 L 444.117188 684.542969 L 459.816406 684.542969 " fill-opacity="1" fill-rule="nonzero"/><path fill="#452616" d="M 459.816406 668.824219 L 459.816406 684.542969 L 444.117188 684.542969 L 444.117188 668.824219 L 459.816406 668.824219 " fill-opacity="1" fill-rule="nonzero"/><path fill="#e9e9e9" d="M 459.816406 653.101562 L 459.816406 668.824219 L 444.117188 668.824219 L 444.117188 653.101562 L 459.816406 653.101562 " fill-opacity="1" fill-rule="nonzero"/><path fill="#452616" d="M 459.816406 637.382812 L 459.816406 653.101562 L 444.117188 653.101562 L 444.117188 637.382812 L 459.816406 637.382812 " fill-opacity="1" fill-rule="nonzero"/><path fill="#33787b" d="M 459.816406 621.664062 L 459.816406 637.382812 L 444.117188 637.382812 L 444.117188 621.664062 L 459.816406 621.664062 " fill-opacity="1" fill-rule="nonzero"/><path fill="#33787b" d="M 459.816406 605.964844 L 459.816406 621.664062 L 444.117188 621.664062 L 444.117188 605.964844 L 459.816406 605.964844 " fill-opacity="1" fill-rule="nonzero"/><path fill="#33787b" d="M 459.816406 590.246094 L 459.816406 605.964844 L 444.117188 605.964844 L 444.117188 590.246094 L 459.816406 590.246094 " fill-opacity="1" fill-rule="nonzero"/><path fill="#33787b" d="M 459.816406 574.527344 L 459.816406 590.246094 L 444.117188 590.246094 L 444.117188 574.527344 L 459.816406 574.527344 " fill-opacity="1" fill-rule="nonzero"/><path fill="#33787b" d="M 459.816406 558.804688 L 459.816406 574.527344 L 444.117188 574.527344 L 444.117188 558.804688 L 459.816406 558.804688 " fill-opacity="1" fill-rule="nonzero"/><path fill="#439f92" d="M 459.816406 543.085938 L 459.816406 558.804688 L 444.117188 558.804688 L 444.117188 543.085938 L 459.816406 543.085938 " fill-opacity="1" fill-rule="nonzero"/><path fill="#452616" d="M 459.816406 527.367188 L 459.816406 543.085938 L 444.117188 543.085938 L 444.117188 527.367188 L 459.816406 527.367188 " fill-opacity="1" fill-rule="nonzero"/><path fill="#e6c812" d="M 459.816406 511.667969 L 459.816406 527.367188 L 444.117188 527.367188 L 444.117188 511.667969 L 459.816406 511.667969 " fill-opacity="1" fill-rule="nonzero"/><path fill="#452616" d="M 459.816406 495.949219 L 459.816406 511.667969 L 444.117188 511.667969 L 444.117188 495.949219 L 459.816406 495.949219 " fill-opacity="1" fill-rule="nonzero"/><path fill="#52b8a9" d="M 459.816406 480.230469 L 459.816406 495.949219 L 444.117188 495.949219 L 444.117188 480.230469 L 459.816406 480.230469 " fill-opacity="1" fill-rule="nonzero"/><path fill="#47a799" d="M 459.816406 464.507812 L 459.816406 480.230469 L 444.117188 480.230469 L 444.117188 464.507812 L 459.816406 464.507812 " fill-opacity="1" fill-rule="nonzero"/><path fill="#d3d2d2" d="M 459.816406 448.789062 L 459.816406 464.507812 L 444.117188 464.507812 L 444.117188 448.789062 L 459.816406 448.789062 " fill-opacity="1" fill-rule="nonzero"/><path fill="#d3d2d2" d="M 459.816406 433.089844 L 459.816406 448.789062 L 444.117188 448.789062 L 444.117188 433.089844 L 459.816406 433.089844 " fill-opacity="1" fill-rule="nonzero"/><path fill="#52b8a9" d="M 459.816406 417.371094 L 459.816406 433.089844 L 444.117188 433.089844 L 444.117188 417.371094 L 459.816406 417.371094 " fill-opacity="1" fill-rule="nonzero"/><path fill="#52b8a9" d="M 459.816406 401.652344 L 459.816406 417.371094 L 444.117188 417.371094 L 444.117188 401.652344 L 459.816406 401.652344 " fill-opacity="1" fill-rule="nonzero"/><path fill="#47a799" d="M 459.816406 385.933594 L 459.816406 401.652344 L 444.117188 401.652344 L 444.117188 385.933594 L 459.816406 385.933594 " fill-opacity="1" fill-rule="nonzero"/><path fill="#47a799" d="M 459.816406 370.214844 L 459.816406 385.933594 L 444.117188 385.933594 L 444.117188 370.214844 L 459.816406 370.214844 " fill-opacity="1" fill-rule="nonzero"/><path fill="#47a799" d="M 459.816406 354.507812 L 459.816406 370.214844 L 444.117188 370.214844 L 444.117188 354.507812 L 459.816406 354.507812 " fill-opacity="1" fill-rule="nonzero"/><path fill="#52b8a9" d="M 459.816406 338.789062 L 459.816406 354.507812 L 444.117188 354.507812 L 444.117188 338.789062 L 459.816406 338.789062 " fill-opacity="1" fill-rule="nonzero"/><path fill="#52b8a9" d="M 459.816406 323.066406 L 459.816406 338.789062 L 444.117188 338.789062 L 444.117188 323.066406 L 459.816406 323.066406 " fill-opacity="1" fill-rule="nonzero"/><path fill="#52b8a9" d="M 459.816406 307.347656 L 459.816406 323.066406 L 444.117188 323.066406 L 444.117188 307.347656 L 459.816406 307.347656 " fill-opacity="1" fill-rule="nonzero"/><path fill="#52b8a9" d="M 459.816406 291.628906 L 459.816406 307.347656 L 444.117188 307.347656 L 444.117188 291.628906 L 459.816406 291.628906 " fill-opacity="1" fill-rule="nonzero"/><path fill="#52b8a9" d="M 459.816406 275.929688 L 459.816406 291.628906 L 444.117188 291.628906 L 444.117188 275.929688 L 459.816406 275.929688 " fill-opacity="1" fill-rule="nonzero"/><path fill="#452616" d="M 459.816406 181.632812 L 459.816406 197.332031 L 444.117188 197.332031 L 444.117188 181.632812 L 459.816406 181.632812 " fill-opacity="1" fill-rule="nonzero"/><g clip-path="url(#b37e0d590a)"><path fill="#452616" d="M 459.816406 150.195312 L 459.816406 165.914062 L 444.117188 165.914062 L 444.117188 150.195312 L 459.816406 150.195312 " fill-opacity="1" fill-rule="nonzero"/></g><path fill="#33787b" d="M 444.117188 621.664062 L 444.117188 637.382812 L 428.40625 637.382812 L 428.40625 621.664062 L 444.117188 621.664062 " fill-opacity="1" fill-rule="nonzero"/><path fill="#33787b" d="M 444.117188 605.964844 L 444.117188 621.664062 L 428.40625 621.664062 L 428.40625 605.964844 L 444.117188 605.964844 " fill-opacity="1" fill-rule="nonzero"/><path fill="#33787b" d="M 444.117188 590.246094 L 444.117188 605.964844 L 428.40625 605.964844 L 428.40625 590.246094 L 444.117188 590.246094 " fill-opacity="1" fill-rule="nonzero"/><path fill="#33787b" d="M 444.117188 574.527344 L 444.117188 590.246094 L 428.40625 590.246094 L 428.40625 574.527344 L 444.117188 574.527344 " fill-opacity="1" fill-rule="nonzero"/><path fill="#33787b" d="M 444.117188 558.804688 L 444.117188 574.527344 L 428.40625 574.527344 L 428.40625 558.804688 L 444.117188 558.804688 " fill-opacity="1" fill-rule="nonzero"/><path fill="#439f92" d="M 444.117188 543.085938 L 444.117188 558.804688 L 428.40625 558.804688 L 428.40625 543.085938 L 444.117188 543.085938 " fill-opacity="1" fill-rule="nonzero"/><path fill="#452616" d="M 444.117188 527.367188 L 444.117188 543.085938 L 428.40625 543.085938 L 428.40625 527.367188 L 444.117188 527.367188 " fill-opacity="1" fill-rule="nonzero"/><path fill="#452616" d="M 444.117188 511.667969 L 444.117188 527.367188 L 428.40625 527.367188 L 428.40625 511.667969 L 444.117188 511.667969 " fill-opacity="1" fill-rule="nonzero"/><path fill="#452616" d="M 444.117188 495.949219 L 444.117188 511.667969 L 428.40625 511.667969 L 428.40625 495.949219 L 444.117188 495.949219 " fill-opacity="1" fill-rule="nonzero"/><path fill="#52b8a9" d="M 444.117188 480.230469 L 444.117188 495.949219 L 428.40625 495.949219 L 428.40625 480.230469 L 444.117188 480.230469 " fill-opacity="1" fill-rule="nonzero"/><path fill="#47a799" d="M 444.117188 464.507812 L 444.117188 480.230469 L 428.40625 480.230469 L 428.40625 464.507812 L 444.117188 464.507812 " fill-opacity="1" fill-rule="nonzero"/><path fill="#ffffff" d="M 444.117188 448.789062 L 444.117188 464.507812 L 428.40625 464.507812 L 428.40625 448.789062 L 444.117188 448.789062 " fill-opacity="1" fill-rule="nonzero"/><path fill="#ffffff" d="M 444.117188 433.089844 L 444.117188 448.789062 L 428.40625 448.789062 L 428.40625 433.089844 L 444.117188 433.089844 " fill-opacity="1" fill-rule="nonzero"/><path fill="#52b8a9" d="M 444.117188 417.371094 L 444.117188 433.089844 L 428.40625 433.089844 L 428.40625 417.371094 L 444.117188 417.371094 " fill-opacity="1" fill-rule="nonzero"/><path fill="#47a799" d="M 444.117188 401.652344 L 444.117188 417.371094 L 428.40625 417.371094 L 428.40625 401.652344 L 444.117188 401.652344 " fill-opacity="1" fill-rule="nonzero"/><path fill="#ffffff" d="M 444.117188 385.933594 L 444.117188 401.652344 L 428.40625 401.652344 L 428.40625 385.933594 L 444.117188 385.933594 " fill-opacity="1" fill-rule="nonzero"/><path fill="#ffffff" d="M 444.117188 370.214844 L 444.117188 385.933594 L 428.40625 385.933594 L 428.40625 370.214844 L 444.117188 370.214844 " fill-opacity="1" fill-rule="nonzero"/><path fill="#ffffff" d="M 444.117188 354.507812 L 444.117188 370.214844 L 428.40625 370.214844 L 428.40625 354.507812 L 444.117188 354.507812 " fill-opacity="1" fill-rule="nonzero"/><path fill="#47a799" d="M 444.117188 338.789062 L 444.117188 354.507812 L 428.40625 354.507812 L 428.40625 338.789062 L 444.117188 338.789062 " fill-opacity="1" fill-rule="nonzero"/><path fill="#52b8a9" d="M 444.117188 323.066406 L 444.117188 338.789062 L 428.40625 338.789062 L 428.40625 323.066406 L 444.117188 323.066406 " fill-opacity="1" fill-rule="nonzero"/><path fill="#52b8a9" d="M 444.117188 307.347656 L 444.117188 323.066406 L 428.40625 323.066406 L 428.40625 307.347656 L 444.117188 307.347656 " fill-opacity="1" fill-rule="nonzero"/><path fill="#52b8a9" d="M 444.117188 291.628906 L 444.117188 307.347656 L 428.40625 307.347656 L 428.40625 291.628906 L 444.117188 291.628906 " fill-opacity="1" fill-rule="nonzero"/><path fill="#52b8a9" d="M 444.117188 275.929688 L 444.117188 291.628906 L 428.40625 291.628906 L 428.40625 275.929688 L 444.117188 275.929688 " fill-opacity="1" fill-rule="nonzero"/><path fill="#52b8a9" d="M 444.117188 260.210938 L 444.117188 275.929688 L 428.40625 275.929688 L 428.40625 260.210938 L 444.117188 260.210938 " fill-opacity="1" fill-rule="nonzero"/><path fill="#452616" d="M 444.117188 181.632812 L 444.117188 197.332031 L 428.40625 197.332031 L 428.40625 181.632812 L 444.117188 181.632812 " fill-opacity="1" fill-rule="nonzero"/><path fill="#452616" d="M 444.117188 165.914062 L 444.117188 181.632812 L 428.40625 181.632812 L 428.40625 165.914062 L 444.117188 165.914062 " fill-opacity="1" fill-rule="nonzero"/><g clip-path="url(#fd62c2a625)"><path fill="#452616" d="M 444.117188 150.195312 L 444.117188 165.914062 L 428.40625 165.914062 L 428.40625 150.195312 L 444.117188 150.195312 " fill-opacity="1" fill-rule="nonzero"/></g><path fill="#2b686a" d="M 428.40625 590.246094 L 428.40625 605.964844 L 412.691406 605.964844 L 412.691406 590.246094 L 428.40625 590.246094 " fill-opacity="1" fill-rule="nonzero"/><path fill="#33787b" d="M 428.40625 574.527344 L 428.40625 590.246094 L 412.691406 590.246094 L 412.691406 574.527344 L 428.40625 574.527344 " fill-opacity="1" fill-rule="nonzero"/><path fill="#33787b" d="M 428.40625 558.804688 L 428.40625 574.527344 L 412.691406 574.527344 L 412.691406 558.804688 L 428.40625 558.804688 " fill-opacity="1" fill-rule="nonzero"/><path fill="#439f92" d="M 428.40625 543.085938 L 428.40625 558.804688 L 412.691406 558.804688 L 412.691406 543.085938 L 428.40625 543.085938 " fill-opacity="1" fill-rule="nonzero"/><path fill="#452616" d="M 428.40625 527.367188 L 428.40625 543.085938 L 412.691406 543.085938 L 412.691406 527.367188 L 428.40625 527.367188 " fill-opacity="1" fill-rule="nonzero"/><path fill="#e6c812" d="M 428.40625 511.667969 L 428.40625 527.367188 L 412.691406 527.367188 L 412.691406 511.667969 L 428.40625 511.667969 " fill-opacity="1" fill-rule="nonzero"/><path fill="#452616" d="M 428.40625 495.949219 L 428.40625 511.667969 L 412.691406 511.667969 L 412.691406 495.949219 L 428.40625 495.949219 " fill-opacity="1" fill-rule="nonzero"/><path fill="#52b8a9" d="M 428.40625 480.230469 L 428.40625 495.949219 L 412.691406 495.949219 L 412.691406 480.230469 L 428.40625 480.230469 " fill-opacity="1" fill-rule="nonzero"/><path fill="#47a799" d="M 428.40625 464.507812 L 428.40625 480.230469 L 412.691406 480.230469 L 412.691406 464.507812 L 428.40625 464.507812 " fill-opacity="1" fill-rule="nonzero"/><path fill="#d3d2d2" d="M 428.40625 448.789062 L 428.40625 464.507812 L 412.691406 464.507812 L 412.691406 448.789062 L 428.40625 448.789062 " fill-opacity="1" fill-rule="nonzero"/><path fill="#d3d2d2" d="M 428.40625 433.089844 L 428.40625 448.789062 L 412.691406 448.789062 L 412.691406 433.089844 L 428.40625 433.089844 " fill-opacity="1" fill-rule="nonzero"/><path fill="#47a799" d="M 428.40625 417.371094 L 428.40625 433.089844 L 412.691406 433.089844 L 412.691406 417.371094 L 428.40625 417.371094 " fill-opacity="1" fill-rule="nonzero"/><path fill="#ffffff" d="M 428.40625 401.652344 L 428.40625 417.371094 L 412.691406 417.371094 L 412.691406 401.652344 L 428.40625 401.652344 " fill-opacity="1" fill-rule="nonzero"/><path fill="#211913" d="M 428.40625 385.933594 L 428.40625 401.652344 L 412.691406 401.652344 L 412.691406 385.933594 L 428.40625 385.933594 " fill-opacity="1" fill-rule="nonzero"/><path fill="#211913" d="M 428.40625 370.214844 L 428.40625 385.933594 L 412.691406 385.933594 L 412.691406 370.214844 L 428.40625 370.214844 " fill-opacity="1" fill-rule="nonzero"/><path fill="#ffffff" d="M 428.40625 354.507812 L 428.40625 370.214844 L 412.691406 370.214844 L 412.691406 354.507812 L 428.40625 354.507812 " fill-opacity="1" fill-rule="nonzero"/><path fill="#d3d2d2" d="M 428.40625 338.789062 L 428.40625 354.507812 L 412.691406 354.507812 L 412.691406 338.789062 L 428.40625 338.789062 " fill-opacity="1" fill-rule="nonzero"/><path fill="#47a799" d="M 428.40625 323.066406 L 428.40625 338.789062 L 412.691406 338.789062 L 412.691406 323.066406 L 428.40625 323.066406 " fill-opacity="1" fill-rule="nonzero"/><path fill="#52b8a9" d="M 428.40625 307.347656 L 428.40625 323.066406 L 412.691406 323.066406 L 412.691406 307.347656 L 428.40625 307.347656 " fill-opacity="1" fill-rule="nonzero"/><path fill="#52b8a9" d="M 428.40625 291.628906 L 428.40625 307.347656 L 412.691406 307.347656 L 412.691406 291.628906 L 428.40625 291.628906 " fill-opacity="1" fill-rule="nonzero"/><path fill="#52b8a9" d="M 428.40625 275.929688 L 428.40625 291.628906 L 412.691406 291.628906 L 412.691406 275.929688 L 428.40625 275.929688 " fill-opacity="1" fill-rule="nonzero"/><path fill="#52b8a9" d="M 428.40625 260.210938 L 428.40625 275.929688 L 412.691406 275.929688 L 412.691406 260.210938 L 428.40625 260.210938 " fill-opacity="1" fill-rule="nonzero"/><path fill="#f26f1b" d="M 428.40625 244.492188 L 428.40625 260.210938 L 412.691406 260.210938 L 412.691406 244.492188 L 428.40625 244.492188 " fill-opacity="1" fill-rule="nonzero"/><path fill="#452616" d="M 428.40625 165.914062 L 428.40625 181.632812 L 412.691406 181.632812 L 412.691406 165.914062 L 428.40625 165.914062 " fill-opacity="1" fill-rule="nonzero"/><path fill="#2b686a" d="M 412.691406 590.246094 L 412.691406 605.964844 L 396.980469 605.964844 L 396.980469 590.246094 L 412.691406 590.246094 " fill-opacity="1" fill-rule="nonzero"/><path fill="#33787b" d="M 412.691406 574.527344 L 412.691406 590.246094 L 396.980469 590.246094 L 396.980469 574.527344 L 412.691406 574.527344 " fill-opacity="1" fill-rule="nonzero"/><path fill="#33787b" d="M 412.691406 558.804688 L 412.691406 574.527344 L 396.980469 574.527344 L 396.980469 558.804688 L 412.691406 558.804688 " fill-opacity="1" fill-rule="nonzero"/><path fill="#439f92" d="M 412.691406 543.085938 L 412.691406 558.804688 L 396.980469 558.804688 L 396.980469 543.085938 L 412.691406 543.085938 " fill-opacity="1" fill-rule="nonzero"/><path fill="#452616" d="M 412.691406 527.367188 L 412.691406 543.085938 L 396.980469 543.085938 L 396.980469 527.367188 L 412.691406 527.367188 " fill-opacity="1" fill-rule="nonzero"/><path fill="#452616" d="M 412.691406 511.667969 L 412.691406 527.367188 L 396.980469 527.367188 L 396.980469 511.667969 L 412.691406 511.667969 " fill-opacity="1" fill-rule="nonzero"/><path fill="#452616" d="M 412.691406 495.949219 L 412.691406 511.667969 L 396.980469 511.667969 L 396.980469 495.949219 L 412.691406 495.949219 " fill-opacity="1" fill-rule="nonzero"/><path fill="#52b8a9" d="M 412.691406 480.230469 L 412.691406 495.949219 L 396.980469 495.949219 L 396.980469 480.230469 L 412.691406 480.230469 " fill-opacity="1" fill-rule="nonzero"/><path fill="#47a799" d="M 412.691406 464.507812 L 412.691406 480.230469 L 396.980469 480.230469 L 396.980469 464.507812 L 412.691406 464.507812 " fill-opacity="1" fill-rule="nonzero"/><path fill="#ffffff" d="M 412.691406 448.789062 L 412.691406 464.507812 L 396.980469 464.507812 L 396.980469 448.789062 L 412.691406 448.789062 " fill-opacity="1" fill-rule="nonzero"/><path fill="#ffffff" d="M 412.691406 433.089844 L 412.691406 448.789062 L 396.980469 448.789062 L 396.980469 433.089844 L 412.691406 433.089844 " fill-opacity="1" fill-rule="nonzero"/><path fill="#47a799" d="M 412.691406 417.371094 L 412.691406 433.089844 L 396.980469 433.089844 L 396.980469 417.371094 L 412.691406 417.371094 " fill-opacity="1" fill-rule="nonzero"/><path fill="#ffffff" d="M 412.691406 401.652344 L 412.691406 417.371094 L 396.980469 417.371094 L 396.980469 401.652344 L 412.691406 401.652344 " fill-opacity="1" fill-rule="nonzero"/><path fill="#211913" d="M 412.691406 385.933594 L 412.691406 401.652344 L 396.980469 401.652344 L 396.980469 385.933594 L 412.691406 385.933594 " fill-opacity="1" fill-rule="nonzero"/><path fill="#211913" d="M 412.691406 370.214844 L 412.691406 385.933594 L 396.980469 385.933594 L 396.980469 370.214844 L 412.691406 370.214844 " fill-opacity="1" fill-rule="nonzero"/><path fill="#ffffff" d="M 412.691406 354.507812 L 412.691406 370.214844 L 396.980469 370.214844 L 396.980469 354.507812 L 412.691406 354.507812 " fill-opacity="1" fill-rule="nonzero"/><path fill="#d3d2d2" d="M 412.691406 338.789062 L 412.691406 354.507812 L 396.980469 354.507812 L 396.980469 338.789062 L 412.691406 338.789062 " fill-opacity="1" fill-rule="nonzero"/><path fill="#47a799" d="M 412.691406 323.066406 L 412.691406 338.789062 L 396.980469 338.789062 L 396.980469 323.066406 L 412.691406 323.066406 " fill-opacity="1" fill-rule="nonzero"/><path fill="#52b8a9" d="M 412.691406 307.347656 L 412.691406 323.066406 L 396.980469 323.066406 L 396.980469 307.347656 L 412.691406 307.347656 " fill-opacity="1" fill-rule="nonzero"/><path fill="#52b8a9" d="M 412.691406 291.628906 L 412.691406 307.347656 L 396.980469 307.347656 L 396.980469 291.628906 L 412.691406 291.628906 " fill-opacity="1" fill-rule="nonzero"/><path fill="#52b8a9" d="M 412.691406 275.929688 L 412.691406 291.628906 L 396.980469 291.628906 L 396.980469 275.929688 L 412.691406 275.929688 " fill-opacity="1" fill-rule="nonzero"/><path fill="#52b8a9" d="M 412.691406 260.210938 L 412.691406 275.929688 L 396.980469 275.929688 L 396.980469 260.210938 L 412.691406 260.210938 " fill-opacity="1" fill-rule="nonzero"/><path fill="#f26f1b" d="M 412.691406 244.492188 L 412.691406 260.210938 L 396.980469 260.210938 L 396.980469 244.492188 L 412.691406 244.492188 " fill-opacity="1" fill-rule="nonzero"/><path fill="#452616" d="M 412.691406 228.769531 L 412.691406 244.492188 L 396.980469 244.492188 L 396.980469 228.769531 L 412.691406 228.769531 " fill-opacity="1" fill-rule="nonzero"/><path fill="#452616" d="M 412.691406 213.050781 L 412.691406 228.769531 L 396.980469 228.769531 L 396.980469 213.050781 L 412.691406 213.050781 " fill-opacity="1" fill-rule="nonzero"/><path fill="#452616" d="M 412.691406 197.332031 L 412.691406 213.050781 L 396.980469 213.050781 L 396.980469 197.332031 L 412.691406 197.332031 " fill-opacity="1" fill-rule="nonzero"/><path fill="#452616" d="M 412.691406 181.632812 L 412.691406 197.332031 L 396.980469 197.332031 L 396.980469 181.632812 L 412.691406 181.632812 " fill-opacity="1" fill-rule="nonzero"/><path fill="#452616" d="M 412.691406 165.914062 L 412.691406 181.632812 L 396.980469 181.632812 L 396.980469 165.914062 L 412.691406 165.914062 " fill-opacity="1" fill-rule="nonzero"/><path fill="#2b686a" d="M 396.980469 590.246094 L 396.980469 605.964844 L 381.269531 605.964844 L 381.269531 590.246094 L 396.980469 590.246094 " fill-opacity="1" fill-rule="nonzero"/><path fill="#33787b" d="M 396.980469 574.527344 L 396.980469 590.246094 L 381.269531 590.246094 L 381.269531 574.527344 L 396.980469 574.527344 " fill-opacity="1" fill-rule="nonzero"/><path fill="#33787b" d="M 396.980469 558.804688 L 396.980469 574.527344 L 381.269531 574.527344 L 381.269531 558.804688 L 396.980469 558.804688 " fill-opacity="1" fill-rule="nonzero"/><path fill="#439f92" d="M 396.980469 543.085938 L 396.980469 558.804688 L 381.269531 558.804688 L 381.269531 543.085938 L 396.980469 543.085938 " fill-opacity="1" fill-rule="nonzero"/><path fill="#452616" d="M 396.980469 527.367188 L 396.980469 543.085938 L 381.269531 543.085938 L 381.269531 527.367188 L 396.980469 527.367188 " fill-opacity="1" fill-rule="nonzero"/><path fill="#e6c812" d="M 396.980469 511.667969 L 396.980469 527.367188 L 381.269531 527.367188 L 381.269531 511.667969 L 396.980469 511.667969 " fill-opacity="1" fill-rule="nonzero"/><path fill="#452616" d="M 396.980469 495.949219 L 396.980469 511.667969 L 381.269531 511.667969 L 381.269531 495.949219 L 396.980469 495.949219 " fill-opacity="1" fill-rule="nonzero"/><path fill="#52b8a9" d="M 396.980469 480.230469 L 396.980469 495.949219 L 381.269531 495.949219 L 381.269531 480.230469 L 396.980469 480.230469 " fill-opacity="1" fill-rule="nonzero"/><path fill="#47a799" d="M 396.980469 464.507812 L 396.980469 480.230469 L 381.269531 480.230469 L 381.269531 464.507812 L 396.980469 464.507812 " fill-opacity="1" fill-rule="nonzero"/><path fill="#d3d2d2" d="M 396.980469 448.789062 L 396.980469 464.507812 L 381.269531 464.507812 L 381.269531 448.789062 L 396.980469 448.789062 " fill-opacity="1" fill-rule="nonzero"/><path fill="#d3d2d2" d="M 396.980469 433.089844 L 396.980469 448.789062 L 381.269531 448.789062 L 381.269531 433.089844 L 396.980469 433.089844 " fill-opacity="1" fill-rule="nonzero"/><path fill="#47a799" d="M 396.980469 417.371094 L 396.980469 433.089844 L 381.269531 433.089844 L 381.269531 417.371094 L 396.980469 417.371094 " fill-opacity="1" fill-rule="nonzero"/><path fill="#ffffff" d="M 396.980469 401.652344 L 396.980469 417.371094 L 381.269531 417.371094 L 381.269531 401.652344 L 396.980469 401.652344 " fill-opacity="1" fill-rule="nonzero"/><path fill="#ffffff" d="M 396.980469 385.933594 L 396.980469 401.652344 L 381.269531 401.652344 L 381.269531 385.933594 L 396.980469 385.933594 " fill-opacity="1" fill-rule="nonzero"/><path fill="#ffffff" d="M 396.980469 370.214844 L 396.980469 385.933594 L 381.269531 385.933594 L 381.269531 370.214844 L 396.980469 370.214844 " fill-opacity="1" fill-rule="nonzero"/><path fill="#ffffff" d="M 396.980469 354.507812 L 396.980469 370.214844 L 381.269531 370.214844 L 381.269531 354.507812 L 396.980469 354.507812 " fill-opacity="1" fill-rule="nonzero"/><path fill="#d3d2d2" d="M 396.980469 338.789062 L 396.980469 354.507812 L 381.269531 354.507812 L 381.269531 338.789062 L 396.980469 338.789062 " fill-opacity="1" fill-rule="nonzero"/><path fill="#47a799" d="M 396.980469 323.066406 L 396.980469 338.789062 L 381.269531 338.789062 L 381.269531 323.066406 L 396.980469 323.066406 " fill-opacity="1" fill-rule="nonzero"/><path fill="#52b8a9" d="M 396.980469 307.347656 L 396.980469 323.066406 L 381.269531 323.066406 L 381.269531 307.347656 L 396.980469 307.347656 " fill-opacity="1" fill-rule="nonzero"/><path fill="#52b8a9" d="M 396.980469 291.628906 L 396.980469 307.347656 L 381.269531 307.347656 L 381.269531 291.628906 L 396.980469 291.628906 " fill-opacity="1" fill-rule="nonzero"/><path fill="#52b8a9" d="M 396.980469 275.929688 L 396.980469 291.628906 L 381.269531 291.628906 L 381.269531 275.929688 L 396.980469 275.929688 " fill-opacity="1" fill-rule="nonzero"/><path fill="#52b8a9" d="M 396.980469 260.210938 L 396.980469 275.929688 L 381.269531 275.929688 L 381.269531 260.210938 L 396.980469 260.210938 " fill-opacity="1" fill-rule="nonzero"/><path fill="#f26f1b" d="M 396.980469 244.492188 L 396.980469 260.210938 L 381.269531 260.210938 L 381.269531 244.492188 L 396.980469 244.492188 " fill-opacity="1" fill-rule="nonzero"/><path fill="#452616" d="M 396.980469 165.914062 L 396.980469 181.632812 L 381.269531 181.632812 L 381.269531 165.914062 L 396.980469 165.914062 " fill-opacity="1" fill-rule="nonzero"/><path fill="#2b686a" d="M 381.269531 621.664062 L 381.269531 637.382812 L 365.558594 637.382812 L 365.558594 621.664062 L 381.269531 621.664062 " fill-opacity="1" fill-rule="nonzero"/><path fill="#2b686a" d="M 381.269531 605.964844 L 381.269531 621.664062 L 365.558594 621.664062 L 365.558594 605.964844 L 381.269531 605.964844 " fill-opacity="1" fill-rule="nonzero"/><path fill="#2b686a" d="M 381.269531 590.246094 L 381.269531 605.964844 L 365.558594 605.964844 L 365.558594 590.246094 L 381.269531 590.246094 " fill-opacity="1" fill-rule="nonzero"/><path fill="#33787b" d="M 381.269531 574.527344 L 381.269531 590.246094 L 365.558594 590.246094 L 365.558594 574.527344 L 381.269531 574.527344 " fill-opacity="1" fill-rule="nonzero"/><path fill="#33787b" d="M 381.269531 558.804688 L 381.269531 574.527344 L 365.558594 574.527344 L 365.558594 558.804688 L 381.269531 558.804688 " fill-opacity="1" fill-rule="nonzero"/><path fill="#439f92" d="M 381.269531 543.085938 L 381.269531 558.804688 L 365.558594 558.804688 L 365.558594 543.085938 L 381.269531 543.085938 " fill-opacity="1" fill-rule="nonzero"/><path fill="#452616" d="M 381.269531 527.367188 L 381.269531 543.085938 L 365.558594 543.085938 L 365.558594 527.367188 L 381.269531 527.367188 " fill-opacity="1" fill-rule="nonzero"/><path fill="#452616" d="M 381.269531 511.667969 L 381.269531 527.367188 L 365.558594 527.367188 L 365.558594 511.667969 L 381.269531 511.667969 " fill-opacity="1" fill-rule="nonzero"/><path fill="#452616" d="M 381.269531 495.949219 L 381.269531 511.667969 L 365.558594 511.667969 L 365.558594 495.949219 L 381.269531 495.949219 " fill-opacity="1" fill-rule="nonzero"/><path fill="#52b8a9" d="M 381.269531 480.230469 L 381.269531 495.949219 L 365.558594 495.949219 L 365.558594 480.230469 L 381.269531 480.230469 " fill-opacity="1" fill-rule="nonzero"/><path fill="#47a799" d="M 381.269531 464.507812 L 381.269531 480.230469 L 365.558594 480.230469 L 365.558594 464.507812 L 381.269531 464.507812 " fill-opacity="1" fill-rule="nonzero"/><path fill="#ffffff" d="M 381.269531 448.789062 L 381.269531 464.507812 L 365.558594 464.507812 L 365.558594 448.789062 L 381.269531 448.789062 " fill-opacity="1" fill-rule="nonzero"/><path fill="#ffffff" d="M 381.269531 433.089844 L 381.269531 448.789062 L 365.558594 448.789062 L 365.558594 433.089844 L 381.269531 433.089844 " fill-opacity="1" fill-rule="nonzero"/><path fill="#52b8a9" d="M 381.269531 417.371094 L 381.269531 433.089844 L 365.558594 433.089844 L 365.558594 417.371094 L 381.269531 417.371094 " fill-opacity="1" fill-rule="nonzero"/><path fill="#47a799" d="M 381.269531 401.652344 L 381.269531 417.371094 L 365.558594 417.371094 L 365.558594 401.652344 L 381.269531 401.652344 " fill-opacity="1" fill-rule="nonzero"/><path fill="#d3d2d2" d="M 381.269531 385.933594 L 381.269531 401.652344 L 365.558594 401.652344 L 365.558594 385.933594 L 381.269531 385.933594 " fill-opacity="1" fill-rule="nonzero"/><path fill="#d3d2d2" d="M 381.269531 370.214844 L 381.269531 385.933594 L 365.558594 385.933594 L 365.558594 370.214844 L 381.269531 370.214844 " fill-opacity="1" fill-rule="nonzero"/><path fill="#d3d2d2" d="M 381.269531 354.507812 L 381.269531 370.214844 L 365.558594 370.214844 L 365.558594 354.507812 L 381.269531 354.507812 " fill-opacity="1" fill-rule="nonzero"/><path fill="#47a799" d="M 381.269531 338.789062 L 381.269531 354.507812 L 365.558594 354.507812 L 365.558594 338.789062 L 381.269531 338.789062 " fill-opacity="1" fill-rule="nonzero"/><path fill="#52b8a9" d="M 381.269531 323.066406 L 381.269531 338.789062 L 365.558594 338.789062 L 365.558594 323.066406 L 381.269531 323.066406 " fill-opacity="1" fill-rule="nonzero"/><path fill="#52b8a9" d="M 381.269531 307.347656 L 381.269531 323.066406 L 365.558594 323.066406 L 365.558594 307.347656 L 381.269531 307.347656 " fill-opacity="1" fill-rule="nonzero"/><path fill="#52b8a9" d="M 381.269531 291.628906 L 381.269531 307.347656 L 365.558594 307.347656 L 365.558594 291.628906 L 381.269531 291.628906 " fill-opacity="1" fill-rule="nonzero"/><path fill="#52b8a9" d="M 381.269531 275.929688 L 381.269531 291.628906 L 365.558594 291.628906 L 365.558594 275.929688 L 381.269531 275.929688 " fill-opacity="1" fill-rule="nonzero"/><path fill="#52b8a9" d="M 381.269531 260.210938 L 381.269531 275.929688 L 365.558594 275.929688 L 365.558594 260.210938 L 381.269531 260.210938 " fill-opacity="1" fill-rule="nonzero"/><path fill="#452616" d="M 381.269531 181.632812 L 381.269531 197.332031 L 365.558594 197.332031 L 365.558594 181.632812 L 381.269531 181.632812 " fill-opacity="1" fill-rule="nonzero"/><path fill="#452616" d="M 381.269531 165.914062 L 381.269531 181.632812 L 365.558594 181.632812 L 365.558594 165.914062 L 381.269531 165.914062 " fill-opacity="1" fill-rule="nonzero"/><g clip-path="url(#4852315950)"><path fill="#452616" d="M 381.269531 150.195312 L 381.269531 165.914062 L 365.558594 165.914062 L 365.558594 150.195312 L 381.269531 150.195312 " fill-opacity="1" fill-rule="nonzero"/></g><path fill="#ef322b" d="M 365.558594 794.542969 L 365.558594 810.265625 L 349.867188 810.265625 L 349.867188 794.542969 L 365.558594 794.542969 " fill-opacity="1" fill-rule="nonzero"/><path fill="#ef322b" d="M 365.558594 778.824219 L 365.558594 794.542969 L 349.867188 794.542969 L 349.867188 778.824219 L 365.558594 778.824219 " fill-opacity="1" fill-rule="nonzero"/><path fill="#452616" d="M 365.558594 763.117188 L 365.558594 778.824219 L 349.867188 778.824219 L 349.867188 763.117188 L 365.558594 763.117188 " fill-opacity="1" fill-rule="nonzero"/><path fill="#bdbcbc" d="M 365.558594 747.398438 L 365.558594 763.117188 L 349.867188 763.117188 L 349.867188 747.398438 L 365.558594 747.398438 " fill-opacity="1" fill-rule="nonzero"/><path fill="#452616" d="M 365.558594 731.6875 L 365.558594 747.398438 L 349.867188 747.398438 L 349.867188 731.6875 L 365.558594 731.6875 " fill-opacity="1" fill-rule="nonzero"/><path fill="#bdbcbc" d="M 365.558594 715.96875 L 365.558594 731.6875 L 349.867188 731.6875 L 349.867188 715.96875 L 365.558594 715.96875 " fill-opacity="1" fill-rule="nonzero"/><path fill="#452616" d="M 365.558594 700.246094 L 365.558594 715.96875 L 349.867188 715.96875 L 349.867188 700.246094 L 365.558594 700.246094 " fill-opacity="1" fill-rule="nonzero"/><path fill="#bdbcbc" d="M 365.558594 684.542969 L 365.558594 700.246094 L 349.867188 700.246094 L 349.867188 684.542969 L 365.558594 684.542969 " fill-opacity="1" fill-rule="nonzero"/><path fill="#452616" d="M 365.558594 668.824219 L 365.558594 684.542969 L 349.867188 684.542969 L 349.867188 668.824219 L 365.558594 668.824219 " fill-opacity="1" fill-rule="nonzero"/><path fill="#bdbcbc" d="M 365.558594 653.101562 L 365.558594 668.824219 L 349.867188 668.824219 L 349.867188 653.101562 L 365.558594 653.101562 " fill-opacity="1" fill-rule="nonzero"/><path fill="#452616" d="M 365.558594 637.382812 L 365.558594 653.101562 L 349.867188 653.101562 L 349.867188 637.382812 L 365.558594 637.382812 " fill-opacity="1" fill-rule="nonzero"/><path fill="#47a799" d="M 365.558594 621.664062 L 365.558594 637.382812 L 349.867188 637.382812 L 349.867188 621.664062 L 365.558594 621.664062 " fill-opacity="1" fill-rule="nonzero"/><path fill="#47a799" d="M 365.558594 605.964844 L 365.558594 621.664062 L 349.867188 621.664062 L 349.867188 605.964844 L 365.558594 605.964844 " fill-opacity="1" fill-rule="nonzero"/><path fill="#33787b" d="M 365.558594 590.246094 L 365.558594 605.964844 L 349.867188 605.964844 L 349.867188 590.246094 L 365.558594 590.246094 " fill-opacity="1" fill-rule="nonzero"/><path fill="#33787b" d="M 365.558594 574.527344 L 365.558594 590.246094 L 349.867188 590.246094 L 349.867188 574.527344 L 365.558594 574.527344 " fill-opacity="1" fill-rule="nonzero"/><path fill="#33787b" d="M 365.558594 558.804688 L 365.558594 574.527344 L 349.867188 574.527344 L 349.867188 558.804688 L 365.558594 558.804688 " fill-opacity="1" fill-rule="nonzero"/><path fill="#439f92" d="M 365.558594 543.085938 L 365.558594 558.804688 L 349.867188 558.804688 L 349.867188 543.085938 L 365.558594 543.085938 " fill-opacity="1" fill-rule="nonzero"/><path fill="#452616" d="M 365.558594 527.367188 L 365.558594 543.085938 L 349.867188 543.085938 L 349.867188 527.367188 L 365.558594 527.367188 " fill-opacity="1" fill-rule="nonzero"/><path fill="#452616" d="M 365.558594 511.667969 L 365.558594 527.367188 L 349.867188 527.367188 L 349.867188 511.667969 L 365.558594 511.667969 " fill-opacity="1" fill-rule="nonzero"/><path fill="#452616" d="M 365.558594 495.949219 L 365.558594 511.667969 L 349.867188 511.667969 L 349.867188 495.949219 L 365.558594 495.949219 " fill-opacity="1" fill-rule="nonzero"/><path fill="#52b8a9" d="M 365.558594 480.230469 L 365.558594 495.949219 L 349.867188 495.949219 L 349.867188 480.230469 L 365.558594 480.230469 " fill-opacity="1" fill-rule="nonzero"/><path fill="#47a799" d="M 365.558594 464.507812 L 365.558594 480.230469 L 349.867188 480.230469 L 349.867188 464.507812 L 365.558594 464.507812 " fill-opacity="1" fill-rule="nonzero"/><path fill="#d3d2d2" d="M 365.558594 448.789062 L 365.558594 464.507812 L 349.867188 464.507812 L 349.867188 448.789062 L 365.558594 448.789062 " fill-opacity="1" fill-rule="nonzero"/><path fill="#d3d2d2" d="M 365.558594 433.089844 L 365.558594 448.789062 L 349.867188 448.789062 L 349.867188 433.089844 L 365.558594 433.089844 " fill-opacity="1" fill-rule="nonzero"/><path fill="#52b8a9" d="M 365.558594 417.371094 L 365.558594 433.089844 L 349.867188 433.089844 L 349.867188 417.371094 L 365.558594 417.371094 " fill-opacity="1" fill-rule="nonzero"/><path fill="#52b8a9" d="M 365.558594 401.652344 L 365.558594 417.371094 L 349.867188 417.371094 L 349.867188 401.652344 L 365.558594 401.652344 " fill-opacity="1" fill-rule="nonzero"/><path fill="#47a799" d="M 365.558594 385.933594 L 365.558594 401.652344 L 349.867188 401.652344 L 349.867188 385.933594 L 365.558594 385.933594 " fill-opacity="1" fill-rule="nonzero"/><path fill="#47a799" d="M 365.558594 370.214844 L 365.558594 385.933594 L 349.867188 385.933594 L 349.867188 370.214844 L 365.558594 370.214844 " fill-opacity="1" fill-rule="nonzero"/><path fill="#47a799" d="M 365.558594 354.507812 L 365.558594 370.214844 L 349.867188 370.214844 L 349.867188 354.507812 L 365.558594 354.507812 " fill-opacity="1" fill-rule="nonzero"/><path fill="#52b8a9" d="M 365.558594 338.789062 L 365.558594 354.507812 L 349.867188 354.507812 L 349.867188 338.789062 L 365.558594 338.789062 " fill-opacity="1" fill-rule="nonzero"/><path fill="#52b8a9" d="M 365.558594 323.066406 L 365.558594 338.789062 L 349.867188 338.789062 L 349.867188 323.066406 L 365.558594 323.066406 " fill-opacity="1" fill-rule="nonzero"/><path fill="#52b8a9" d="M 365.558594 307.347656 L 365.558594 323.066406 L 349.867188 323.066406 L 349.867188 307.347656 L 365.558594 307.347656 " fill-opacity="1" fill-rule="nonzero"/><path fill="#52b8a9" d="M 365.558594 291.628906 L 365.558594 307.347656 L 349.867188 307.347656 L 349.867188 291.628906 L 365.558594 291.628906 " fill-opacity="1" fill-rule="nonzero"/><path fill="#52b8a9" d="M 365.558594 275.929688 L 365.558594 291.628906 L 349.867188 291.628906 L 349.867188 275.929688 L 365.558594 275.929688 " fill-opacity="1" fill-rule="nonzero"/><path fill="#452616" d="M 365.558594 181.632812 L 365.558594 197.332031 L 349.867188 197.332031 L 349.867188 181.632812 L 365.558594 181.632812 " fill-opacity="1" fill-rule="nonzero"/><g clip-path="url(#5133585508)"><path fill="#452616" d="M 365.558594 150.195312 L 365.558594 165.914062 L 349.867188 165.914062 L 349.867188 150.195312 L 365.558594 150.195312 " fill-opacity="1" fill-rule="nonzero"/></g><path fill="#ef322b" d="M 349.867188 794.542969 L 349.867188 810.265625 L 334.152344 810.265625 L 334.152344 794.542969 L 349.867188 794.542969 " fill-opacity="1" fill-rule="nonzero"/><path fill="#ef322b" d="M 349.867188 778.824219 L 349.867188 794.542969 L 334.152344 794.542969 L 334.152344 778.824219 L 349.867188 778.824219 " fill-opacity="1" fill-rule="nonzero"/><path fill="#452616" d="M 349.867188 763.117188 L 349.867188 778.824219 L 334.152344 778.824219 L 334.152344 763.117188 L 349.867188 763.117188 " fill-opacity="1" fill-rule="nonzero"/><path fill="#e9e9e9" d="M 349.867188 747.398438 L 349.867188 763.117188 L 334.152344 763.117188 L 334.152344 747.398438 L 349.867188 747.398438 " fill-opacity="1" fill-rule="nonzero"/><path fill="#452616" d="M 349.867188 731.6875 L 349.867188 747.398438 L 334.152344 747.398438 L 334.152344 731.6875 L 349.867188 731.6875 " fill-opacity="1" fill-rule="nonzero"/><path fill="#e9e9e9" d="M 349.867188 715.96875 L 349.867188 731.6875 L 334.152344 731.6875 L 334.152344 715.96875 L 349.867188 715.96875 " fill-opacity="1" fill-rule="nonzero"/><path fill="#452616" d="M 349.867188 700.246094 L 349.867188 715.96875 L 334.152344 715.96875 L 334.152344 700.246094 L 349.867188 700.246094 " fill-opacity="1" fill-rule="nonzero"/><path fill="#e9e9e9" d="M 349.867188 684.542969 L 349.867188 700.246094 L 334.152344 700.246094 L 334.152344 684.542969 L 349.867188 684.542969 " fill-opacity="1" fill-rule="nonzero"/><path fill="#452616" d="M 349.867188 668.824219 L 349.867188 684.542969 L 334.152344 684.542969 L 334.152344 668.824219 L 349.867188 668.824219 " fill-opacity="1" fill-rule="nonzero"/><path fill="#e9e9e9" d="M 349.867188 653.101562 L 349.867188 668.824219 L 334.152344 668.824219 L 334.152344 653.101562 L 349.867188 653.101562 " fill-opacity="1" fill-rule="nonzero"/><path fill="#452616" d="M 349.867188 637.382812 L 349.867188 653.101562 L 334.152344 653.101562 L 334.152344 637.382812 L 349.867188 637.382812 " fill-opacity="1" fill-rule="nonzero"/><path fill="#33787b" d="M 349.867188 621.664062 L 349.867188 637.382812 L 334.152344 637.382812 L 334.152344 621.664062 L 349.867188 621.664062 " fill-opacity="1" fill-rule="nonzero"/><path fill="#33787b" d="M 349.867188 605.964844 L 349.867188 621.664062 L 334.152344 621.664062 L 334.152344 605.964844 L 349.867188 605.964844 " fill-opacity="1" fill-rule="nonzero"/><path fill="#33787b" d="M 349.867188 590.246094 L 349.867188 605.964844 L 334.152344 605.964844 L 334.152344 590.246094 L 349.867188 590.246094 " fill-opacity="1" fill-rule="nonzero"/><path fill="#33787b" d="M 349.867188 574.527344 L 349.867188 590.246094 L 334.152344 590.246094 L 334.152344 574.527344 L 349.867188 574.527344 " fill-opacity="1" fill-rule="nonzero"/><path fill="#33787b" d="M 349.867188 558.804688 L 349.867188 574.527344 L 334.152344 574.527344 L 334.152344 558.804688 L 349.867188 558.804688 " fill-opacity="1" fill-rule="nonzero"/><path fill="#439f92" d="M 349.867188 543.085938 L 349.867188 558.804688 L 334.152344 558.804688 L 334.152344 543.085938 L 349.867188 543.085938 " fill-opacity="1" fill-rule="nonzero"/><path fill="#452616" d="M 349.867188 527.367188 L 349.867188 543.085938 L 334.152344 543.085938 L 334.152344 527.367188 L 349.867188 527.367188 " fill-opacity="1" fill-rule="nonzero"/><path fill="#ef322b" d="M 349.867188 511.667969 L 349.867188 527.367188 L 334.152344 527.367188 L 334.152344 511.667969 L 349.867188 511.667969 " fill-opacity="1" fill-rule="nonzero"/><path fill="#452616" d="M 349.867188 495.949219 L 349.867188 511.667969 L 334.152344 511.667969 L 334.152344 495.949219 L 349.867188 495.949219 " fill-opacity="1" fill-rule="nonzero"/><path fill="#52b8a9" d="M 349.867188 480.230469 L 349.867188 495.949219 L 334.152344 495.949219 L 334.152344 480.230469 L 349.867188 480.230469 " fill-opacity="1" fill-rule="nonzero"/><path fill="#47a799" d="M 349.867188 464.507812 L 349.867188 480.230469 L 334.152344 480.230469 L 334.152344 464.507812 L 349.867188 464.507812 " fill-opacity="1" fill-rule="nonzero"/><path fill="#ffffff" d="M 349.867188 448.789062 L 349.867188 464.507812 L 334.152344 464.507812 L 334.152344 448.789062 L 349.867188 448.789062 " fill-opacity="1" fill-rule="nonzero"/><path fill="#ffffff" d="M 349.867188 433.089844 L 349.867188 448.789062 L 334.152344 448.789062 L 334.152344 433.089844 L 349.867188 433.089844 " fill-opacity="1" fill-rule="nonzero"/><path fill="#52b8a9" d="M 349.867188 417.371094 L 349.867188 433.089844 L 334.152344 433.089844 L 334.152344 417.371094 L 349.867188 417.371094 " fill-opacity="1" fill-rule="nonzero"/><path fill="#52b8a9" d="M 349.867188 401.652344 L 349.867188 417.371094 L 334.152344 417.371094 L 334.152344 401.652344 L 349.867188 401.652344 " fill-opacity="1" fill-rule="nonzero"/><path fill="#52b8a9" d="M 349.867188 385.933594 L 349.867188 401.652344 L 334.152344 401.652344 L 334.152344 385.933594 L 349.867188 385.933594 " fill-opacity="1" fill-rule="nonzero"/><path fill="#52b8a9" d="M 349.867188 370.214844 L 349.867188 385.933594 L 334.152344 385.933594 L 334.152344 370.214844 L 349.867188 370.214844 " fill-opacity="1" fill-rule="nonzero"/><path fill="#52b8a9" d="M 349.867188 354.507812 L 349.867188 370.214844 L 334.152344 370.214844 L 334.152344 354.507812 L 349.867188 354.507812 " fill-opacity="1" fill-rule="nonzero"/><path fill="#52b8a9" d="M 349.867188 338.789062 L 349.867188 354.507812 L 334.152344 354.507812 L 334.152344 338.789062 L 349.867188 338.789062 " fill-opacity="1" fill-rule="nonzero"/><path fill="#52b8a9" d="M 349.867188 323.066406 L 349.867188 338.789062 L 334.152344 338.789062 L 334.152344 323.066406 L 349.867188 323.066406 " fill-opacity="1" fill-rule="nonzero"/><path fill="#52b8a9" d="M 349.867188 307.347656 L 349.867188 323.066406 L 334.152344 323.066406 L 334.152344 307.347656 L 349.867188 307.347656 " fill-opacity="1" fill-rule="nonzero"/><path fill="#7ed3c2" d="M 349.867188 291.628906 L 349.867188 307.347656 L 334.152344 307.347656 L 334.152344 291.628906 L 349.867188 291.628906 " fill-opacity="1" fill-rule="nonzero"/><path fill="#52b8a9" d="M 349.867188 275.929688 L 349.867188 291.628906 L 334.152344 291.628906 L 334.152344 275.929688 L 349.867188 275.929688 " fill-opacity="1" fill-rule="nonzero"/><path fill="#452616" d="M 349.867188 181.632812 L 349.867188 197.332031 L 334.152344 197.332031 L 334.152344 181.632812 L 349.867188 181.632812 " fill-opacity="1" fill-rule="nonzero"/><path fill="#452616" d="M 349.867188 165.914062 L 349.867188 181.632812 L 334.152344 181.632812 L 334.152344 165.914062 L 349.867188 165.914062 " fill-opacity="1" fill-rule="nonzero"/><g clip-path="url(#ceea25912c)"><path fill="#452616" d="M 349.867188 150.195312 L 349.867188 165.914062 L 334.152344 165.914062 L 334.152344 150.195312 L 349.867188 150.195312 " fill-opacity="1" fill-rule="nonzero"/></g><path fill="#ef322b" d="M 334.152344 794.542969 L 334.152344 810.265625 L 318.441406 810.265625 L 318.441406 794.542969 L 334.152344 794.542969 " fill-opacity="1" fill-rule="nonzero"/><path fill="#ef322b" d="M 334.152344 778.824219 L 334.152344 794.542969 L 318.441406 794.542969 L 318.441406 778.824219 L 334.152344 778.824219 " fill-opacity="1" fill-rule="nonzero"/><path fill="#33787b" d="M 334.152344 621.664062 L 334.152344 637.382812 L 318.441406 637.382812 L 318.441406 621.664062 L 334.152344 621.664062 " fill-opacity="1" fill-rule="nonzero"/><path fill="#33787b" d="M 334.152344 605.964844 L 334.152344 621.664062 L 318.441406 621.664062 L 318.441406 605.964844 L 334.152344 605.964844 " fill-opacity="1" fill-rule="nonzero"/><path fill="#33787b" d="M 334.152344 590.246094 L 334.152344 605.964844 L 318.441406 605.964844 L 318.441406 590.246094 L 334.152344 590.246094 " fill-opacity="1" fill-rule="nonzero"/><path fill="#33787b" d="M 334.152344 574.527344 L 334.152344 590.246094 L 318.441406 590.246094 L 318.441406 574.527344 L 334.152344 574.527344 " fill-opacity="1" fill-rule="nonzero"/><path fill="#33787b" d="M 334.152344 558.804688 L 334.152344 574.527344 L 318.441406 574.527344 L 318.441406 558.804688 L 334.152344 558.804688 " fill-opacity="1" fill-rule="nonzero"/><path fill="#439f92" d="M 334.152344 543.085938 L 334.152344 558.804688 L 318.441406 558.804688 L 318.441406 543.085938 L 334.152344 543.085938 " fill-opacity="1" fill-rule="nonzero"/><path fill="#452616" d="M 334.152344 527.367188 L 334.152344 543.085938 L 318.441406 543.085938 L 318.441406 527.367188 L 334.152344 527.367188 " fill-opacity="1" fill-rule="nonzero"/><path fill="#452616" d="M 334.152344 511.667969 L 334.152344 527.367188 L 318.441406 527.367188 L 318.441406 511.667969 L 334.152344 511.667969 " fill-opacity="1" fill-rule="nonzero"/><path fill="#452616" d="M 334.152344 495.949219 L 334.152344 511.667969 L 318.441406 511.667969 L 318.441406 495.949219 L 334.152344 495.949219 " fill-opacity="1" fill-rule="nonzero"/><path fill="#52b8a9" d="M 334.152344 480.230469 L 334.152344 495.949219 L 318.441406 495.949219 L 318.441406 480.230469 L 334.152344 480.230469 " fill-opacity="1" fill-rule="nonzero"/><path fill="#52b8a9" d="M 334.152344 464.507812 L 334.152344 480.230469 L 318.441406 480.230469 L 318.441406 464.507812 L 334.152344 464.507812 " fill-opacity="1" fill-rule="nonzero"/><path fill="#52b8a9" d="M 334.152344 448.789062 L 334.152344 464.507812 L 318.441406 464.507812 L 318.441406 448.789062 L 334.152344 448.789062 " fill-opacity="1" fill-rule="nonzero"/><path fill="#52b8a9" d="M 334.152344 433.089844 L 334.152344 448.789062 L 318.441406 448.789062 L 318.441406 433.089844 L 334.152344 433.089844 " fill-opacity="1" fill-rule="nonzero"/><path fill="#52b8a9" d="M 334.152344 417.371094 L 334.152344 433.089844 L 318.441406 433.089844 L 318.441406 417.371094 L 334.152344 417.371094 " fill-opacity="1" fill-rule="nonzero"/><path fill="#52b8a9" d="M 334.152344 401.652344 L 334.152344 417.371094 L 318.441406 417.371094 L 318.441406 401.652344 L 334.152344 401.652344 " fill-opacity="1" fill-rule="nonzero"/><path fill="#52b8a9" d="M 334.152344 385.933594 L 334.152344 401.652344 L 318.441406 401.652344 L 318.441406 385.933594 L 334.152344 385.933594 " fill-opacity="1" fill-rule="nonzero"/><path fill="#52b8a9" d="M 334.152344 370.214844 L 334.152344 385.933594 L 318.441406 385.933594 L 318.441406 370.214844 L 334.152344 370.214844 " fill-opacity="1" fill-rule="nonzero"/><path fill="#52b8a9" d="M 334.152344 354.507812 L 334.152344 370.214844 L 318.441406 370.214844 L 318.441406 354.507812 L 334.152344 354.507812 " fill-opacity="1" fill-rule="nonzero"/><path fill="#52b8a9" d="M 334.152344 338.789062 L 334.152344 354.507812 L 318.441406 354.507812 L 318.441406 338.789062 L 334.152344 338.789062 " fill-opacity="1" fill-rule="nonzero"/><path fill="#52b8a9" d="M 334.152344 323.066406 L 334.152344 338.789062 L 318.441406 338.789062 L 318.441406 323.066406 L 334.152344 323.066406 " fill-opacity="1" fill-rule="nonzero"/><path fill="#7ed3c2" d="M 334.152344 307.347656 L 334.152344 323.066406 L 318.441406 323.066406 L 318.441406 307.347656 L 334.152344 307.347656 " fill-opacity="1" fill-rule="nonzero"/><path fill="#52b8a9" d="M 334.152344 291.628906 L 334.152344 307.347656 L 318.441406 307.347656 L 318.441406 291.628906 L 334.152344 291.628906 " fill-opacity="1" fill-rule="nonzero"/><path fill="#ef322b" d="M 318.441406 794.542969 L 318.441406 810.265625 L 302.730469 810.265625 L 302.730469 794.542969 L 318.441406 794.542969 " fill-opacity="1" fill-rule="nonzero"/><path fill="#ef322b" d="M 318.441406 778.824219 L 318.441406 794.542969 L 302.730469 794.542969 L 302.730469 778.824219 L 318.441406 778.824219 " fill-opacity="1" fill-rule="nonzero"/><path fill="#33787b" d="M 318.441406 590.246094 L 318.441406 605.964844 L 302.730469 605.964844 L 302.730469 590.246094 L 318.441406 590.246094 " fill-opacity="1" fill-rule="nonzero"/><path fill="#33787b" d="M 318.441406 574.527344 L 318.441406 590.246094 L 302.730469 590.246094 L 302.730469 574.527344 L 318.441406 574.527344 " fill-opacity="1" fill-rule="nonzero"/><path fill="#33787b" d="M 318.441406 558.804688 L 318.441406 574.527344 L 302.730469 574.527344 L 302.730469 558.804688 L 318.441406 558.804688 " fill-opacity="1" fill-rule="nonzero"/><path fill="#439f92" d="M 318.441406 543.085938 L 318.441406 558.804688 L 302.730469 558.804688 L 302.730469 543.085938 L 318.441406 543.085938 " fill-opacity="1" fill-rule="nonzero"/><path fill="#52b8a9" d="M 318.441406 527.367188 L 318.441406 543.085938 L 302.730469 543.085938 L 302.730469 527.367188 L 318.441406 527.367188 " fill-opacity="1" fill-rule="nonzero"/><path fill="#52b8a9" d="M 318.441406 511.667969 L 318.441406 527.367188 L 302.730469 527.367188 L 302.730469 511.667969 L 318.441406 511.667969 " fill-opacity="1" fill-rule="nonzero"/><path fill="#52b8a9" d="M 318.441406 495.949219 L 318.441406 511.667969 L 302.730469 511.667969 L 302.730469 495.949219 L 318.441406 495.949219 " fill-opacity="1" fill-rule="nonzero"/><path fill="#52b8a9" d="M 318.441406 480.230469 L 318.441406 495.949219 L 302.730469 495.949219 L 302.730469 480.230469 L 318.441406 480.230469 " fill-opacity="1" fill-rule="nonzero"/><path fill="#52b8a9" d="M 318.441406 464.507812 L 318.441406 480.230469 L 302.730469 480.230469 L 302.730469 464.507812 L 318.441406 464.507812 " fill-opacity="1" fill-rule="nonzero"/><path fill="#52b8a9" d="M 318.441406 448.789062 L 318.441406 464.507812 L 302.730469 464.507812 L 302.730469 448.789062 L 318.441406 448.789062 " fill-opacity="1" fill-rule="nonzero"/><path fill="#52b8a9" d="M 318.441406 433.089844 L 318.441406 448.789062 L 302.730469 448.789062 L 302.730469 433.089844 L 318.441406 433.089844 " fill-opacity="1" fill-rule="nonzero"/><path fill="#52b8a9" d="M 318.441406 417.371094 L 318.441406 433.089844 L 302.730469 433.089844 L 302.730469 417.371094 L 318.441406 417.371094 " fill-opacity="1" fill-rule="nonzero"/><path fill="#52b8a9" d="M 318.441406 401.652344 L 318.441406 417.371094 L 302.730469 417.371094 L 302.730469 401.652344 L 318.441406 401.652344 " fill-opacity="1" fill-rule="nonzero"/><path fill="#52b8a9" d="M 318.441406 385.933594 L 318.441406 401.652344 L 302.730469 401.652344 L 302.730469 385.933594 L 318.441406 385.933594 " fill-opacity="1" fill-rule="nonzero"/><path fill="#52b8a9" d="M 318.441406 370.214844 L 318.441406 385.933594 L 302.730469 385.933594 L 302.730469 370.214844 L 318.441406 370.214844 " fill-opacity="1" fill-rule="nonzero"/><path fill="#52b8a9" d="M 318.441406 354.507812 L 318.441406 370.214844 L 302.730469 370.214844 L 302.730469 354.507812 L 318.441406 354.507812 " fill-opacity="1" fill-rule="nonzero"/><path fill="#7ed3c2" d="M 318.441406 338.789062 L 318.441406 354.507812 L 302.730469 354.507812 L 302.730469 338.789062 L 318.441406 338.789062 " fill-opacity="1" fill-rule="nonzero"/><path fill="#7ed3c2" d="M 318.441406 323.066406 L 318.441406 338.789062 L 302.730469 338.789062 L 302.730469 323.066406 L 318.441406 323.066406 " fill-opacity="1" fill-rule="nonzero"/><path fill="#52b8a9" d="M 318.441406 307.347656 L 318.441406 323.066406 L 302.730469 323.066406 L 302.730469 307.347656 L 318.441406 307.347656 " fill-opacity="1" fill-rule="nonzero"/><path fill="#ef322b" d="M 302.730469 794.542969 L 302.730469 810.265625 L 287.019531 810.265625 L 287.019531 794.542969 L 302.730469 794.542969 " fill-opacity="1" fill-rule="nonzero"/><path fill="#33787b" d="M 302.730469 590.246094 L 302.730469 605.964844 L 287.019531 605.964844 L 287.019531 590.246094 L 302.730469 590.246094 " fill-opacity="1" fill-rule="nonzero"/><path fill="#33787b" d="M 302.730469 574.527344 L 302.730469 590.246094 L 287.019531 590.246094 L 287.019531 574.527344 L 302.730469 574.527344 " fill-opacity="1" fill-rule="nonzero"/><path fill="#33787b" d="M 302.730469 558.804688 L 302.730469 574.527344 L 287.019531 574.527344 L 287.019531 558.804688 L 302.730469 558.804688 " fill-opacity="1" fill-rule="nonzero"/><path fill="#439f92" d="M 302.730469 543.085938 L 302.730469 558.804688 L 287.019531 558.804688 L 287.019531 543.085938 L 302.730469 543.085938 " fill-opacity="1" fill-rule="nonzero"/><path fill="#52b8a9" d="M 302.730469 527.367188 L 302.730469 543.085938 L 287.019531 543.085938 L 287.019531 527.367188 L 302.730469 527.367188 " fill-opacity="1" fill-rule="nonzero"/><path fill="#52b8a9" d="M 302.730469 511.667969 L 302.730469 527.367188 L 287.019531 527.367188 L 287.019531 511.667969 L 302.730469 511.667969 " fill-opacity="1" fill-rule="nonzero"/><path fill="#52b8a9" d="M 302.730469 495.949219 L 302.730469 511.667969 L 287.019531 511.667969 L 287.019531 495.949219 L 302.730469 495.949219 " fill-opacity="1" fill-rule="nonzero"/><path fill="#52b8a9" d="M 302.730469 480.230469 L 302.730469 495.949219 L 287.019531 495.949219 L 287.019531 480.230469 L 302.730469 480.230469 " fill-opacity="1" fill-rule="nonzero"/><path fill="#52b8a9" d="M 302.730469 464.507812 L 302.730469 480.230469 L 287.019531 480.230469 L 287.019531 464.507812 L 302.730469 464.507812 " fill-opacity="1" fill-rule="nonzero"/><path fill="#52b8a9" d="M 302.730469 448.789062 L 302.730469 464.507812 L 287.019531 464.507812 L 287.019531 448.789062 L 302.730469 448.789062 " fill-opacity="1" fill-rule="nonzero"/><path fill="#52b8a9" d="M 302.730469 433.089844 L 302.730469 448.789062 L 287.019531 448.789062 L 287.019531 433.089844 L 302.730469 433.089844 " fill-opacity="1" fill-rule="nonzero"/><path fill="#52b8a9" d="M 302.730469 417.371094 L 302.730469 433.089844 L 287.019531 433.089844 L 287.019531 417.371094 L 302.730469 417.371094 " fill-opacity="1" fill-rule="nonzero"/><path fill="#52b8a9" d="M 302.730469 401.652344 L 302.730469 417.371094 L 287.019531 417.371094 L 287.019531 401.652344 L 302.730469 401.652344 " fill-opacity="1" fill-rule="nonzero"/><path fill="#52b8a9" d="M 302.730469 385.933594 L 302.730469 401.652344 L 287.019531 401.652344 L 287.019531 385.933594 L 302.730469 385.933594 " fill-opacity="1" fill-rule="nonzero"/><path fill="#52b8a9" d="M 302.730469 370.214844 L 302.730469 385.933594 L 287.019531 385.933594 L 287.019531 370.214844 L 302.730469 370.214844 " fill-opacity="1" fill-rule="nonzero"/><path fill="#52b8a9" d="M 302.730469 354.507812 L 302.730469 370.214844 L 287.019531 370.214844 L 287.019531 354.507812 L 302.730469 354.507812 " fill-opacity="1" fill-rule="nonzero"/><path fill="#52b8a9" d="M 302.730469 338.789062 L 302.730469 354.507812 L 287.019531 354.507812 L 287.019531 338.789062 L 302.730469 338.789062 " fill-opacity="1" fill-rule="nonzero"/><path fill="#52b8a9" d="M 302.730469 323.066406 L 302.730469 338.789062 L 287.019531 338.789062 L 287.019531 323.066406 L 302.730469 323.066406 " fill-opacity="1" fill-rule="nonzero"/><path fill="#33787b" d="M 287.019531 574.527344 L 287.019531 590.246094 L 271.328125 590.246094 L 271.328125 574.527344 L 287.019531 574.527344 " fill-opacity="1" fill-rule="nonzero"/><path fill="#33787b" d="M 287.019531 558.804688 L 287.019531 574.527344 L 271.328125 574.527344 L 271.328125 558.804688 L 287.019531 558.804688 " fill-opacity="1" fill-rule="nonzero"/><path fill="#439f92" d="M 287.019531 543.085938 L 287.019531 558.804688 L 271.328125 558.804688 L 271.328125 543.085938 L 287.019531 543.085938 " fill-opacity="1" fill-rule="nonzero"/><path fill="#7ed3c2" d="M 287.019531 527.367188 L 287.019531 543.085938 L 271.328125 543.085938 L 271.328125 527.367188 L 287.019531 527.367188 " fill-opacity="1" fill-rule="nonzero"/><path fill="#7ed3c2" d="M 287.019531 511.667969 L 287.019531 527.367188 L 271.328125 527.367188 L 271.328125 511.667969 L 287.019531 511.667969 " fill-opacity="1" fill-rule="nonzero"/><path fill="#7ed3c2" d="M 287.019531 495.949219 L 287.019531 511.667969 L 271.328125 511.667969 L 271.328125 495.949219 L 287.019531 495.949219 " fill-opacity="1" fill-rule="nonzero"/><path fill="#7ed3c2" d="M 287.019531 480.230469 L 287.019531 495.949219 L 271.328125 495.949219 L 271.328125 480.230469 L 287.019531 480.230469 " fill-opacity="1" fill-rule="nonzero"/><path fill="#7ed3c2" d="M 287.019531 464.507812 L 287.019531 480.230469 L 271.328125 480.230469 L 271.328125 464.507812 L 287.019531 464.507812 " fill-opacity="1" fill-rule="nonzero"/><path fill="#7ed3c2" d="M 287.019531 448.789062 L 287.019531 464.507812 L 271.328125 464.507812 L 271.328125 448.789062 L 287.019531 448.789062 " fill-opacity="1" fill-rule="nonzero"/><path fill="#52b8a9" d="M 287.019531 433.089844 L 287.019531 448.789062 L 271.328125 448.789062 L 271.328125 433.089844 L 287.019531 433.089844 " fill-opacity="1" fill-rule="nonzero"/><path fill="#52b8a9" d="M 287.019531 417.371094 L 287.019531 433.089844 L 271.328125 433.089844 L 271.328125 417.371094 L 287.019531 417.371094 " fill-opacity="1" fill-rule="nonzero"/><path fill="#52b8a9" d="M 287.019531 401.652344 L 287.019531 417.371094 L 271.328125 417.371094 L 271.328125 401.652344 L 287.019531 401.652344 " fill-opacity="1" fill-rule="nonzero"/><path fill="#52b8a9" d="M 287.019531 385.933594 L 287.019531 401.652344 L 271.328125 401.652344 L 271.328125 385.933594 L 287.019531 385.933594 " fill-opacity="1" fill-rule="nonzero"/><path fill="#439f92" d="M 271.328125 543.085938 L 271.328125 558.804688 L 255.613281 558.804688 L 255.613281 543.085938 L 271.328125 543.085938 " fill-opacity="1" fill-rule="nonzero"/><path fill="#52b8a9" d="M 271.328125 527.367188 L 271.328125 543.085938 L 255.613281 543.085938 L 255.613281 527.367188 L 271.328125 527.367188 " fill-opacity="1" fill-rule="nonzero"/><path fill="#52b8a9" d="M 271.328125 511.667969 L 271.328125 527.367188 L 255.613281 527.367188 L 255.613281 511.667969 L 271.328125 511.667969 " fill-opacity="1" fill-rule="nonzero"/><path fill="#52b8a9" d="M 271.328125 495.949219 L 271.328125 511.667969 L 255.613281 511.667969 L 255.613281 495.949219 L 271.328125 495.949219 " fill-opacity="1" fill-rule="nonzero"/><path fill="#52b8a9" d="M 271.328125 480.230469 L 271.328125 495.949219 L 255.613281 495.949219 L 255.613281 480.230469 L 271.328125 480.230469 " fill-opacity="1" fill-rule="nonzero"/><path fill="#52b8a9" d="M 271.328125 464.507812 L 271.328125 480.230469 L 255.613281 480.230469 L 255.613281 464.507812 L 271.328125 464.507812 " fill-opacity="1" fill-rule="nonzero"/><path fill="#52b8a9" d="M 271.328125 448.789062 L 271.328125 464.507812 L 255.613281 464.507812 L 255.613281 448.789062 L 271.328125 448.789062 " fill-opacity="1" fill-rule="nonzero"/><path fill="#52b8a9" d="M 271.328125 433.089844 L 271.328125 448.789062 L 255.613281 448.789062 L 255.613281 433.089844 L 271.328125 433.089844 " fill-opacity="1" fill-rule="nonzero"/><path fill="#f26f1b" d="M 255.613281 511.667969 L 255.613281 527.367188 L 239.902344 527.367188 L 239.902344 511.667969 L 255.613281 511.667969 " fill-opacity="1" fill-rule="nonzero"/><path fill="#f26f1b" d="M 255.613281 495.949219 L 255.613281 511.667969 L 239.902344 511.667969 L 239.902344 495.949219 L 255.613281 495.949219 " fill-opacity="1" fill-rule="nonzero"/><path fill="#f26f1b" d="M 255.613281 480.230469 L 255.613281 495.949219 L 239.902344 495.949219 L 239.902344 480.230469 L 255.613281 480.230469 " fill-opacity="1" fill-rule="nonzero"/><path fill="#f26f1b" d="M 255.613281 464.507812 L 255.613281 480.230469 L 239.902344 480.230469 L 239.902344 464.507812 L 255.613281 464.507812 " fill-opacity="1" fill-rule="nonzero"/><path fill="#452616" d="M 239.902344 495.949219 L 239.902344 511.667969 L 224.191406 511.667969 L 224.191406 495.949219 L 239.902344 495.949219 " fill-opacity="1" fill-rule="nonzero"/><path fill="#452616" d="M 239.902344 480.230469 L 239.902344 495.949219 L 224.191406 495.949219 L 224.191406 480.230469 L 239.902344 480.230469 " fill-opacity="1" fill-rule="nonzero"/><path fill="#ef322b" d="M 224.191406 668.824219 L 224.191406 684.542969 L 208.480469 684.542969 L 208.480469 668.824219 L 224.191406 668.824219 " fill-opacity="1" fill-rule="nonzero"/><path fill="#ef322b" d="M 224.191406 653.101562 L 224.191406 668.824219 L 208.480469 668.824219 L 208.480469 653.101562 L 224.191406 653.101562 " fill-opacity="1" fill-rule="nonzero"/><path fill="#452616" d="M 224.191406 621.664062 L 224.191406 637.382812 L 208.480469 637.382812 L 208.480469 621.664062 L 224.191406 621.664062 " fill-opacity="1" fill-rule="nonzero"/><path fill="#452616" d="M 224.191406 605.964844 L 224.191406 621.664062 L 208.480469 621.664062 L 208.480469 605.964844 L 224.191406 605.964844 " fill-opacity="1" fill-rule="nonzero"/><path fill="#452616" d="M 224.191406 590.246094 L 224.191406 605.964844 L 208.480469 605.964844 L 208.480469 590.246094 L 224.191406 590.246094 " fill-opacity="1" fill-rule="nonzero"/><path fill="#452616" d="M 224.191406 574.527344 L 224.191406 590.246094 L 208.480469 590.246094 L 208.480469 574.527344 L 224.191406 574.527344 " fill-opacity="1" fill-rule="nonzero"/><path fill="#452616" d="M 224.191406 558.804688 L 224.191406 574.527344 L 208.480469 574.527344 L 208.480469 558.804688 L 224.191406 558.804688 " fill-opacity="1" fill-rule="nonzero"/><path fill="#452616" d="M 224.191406 543.085938 L 224.191406 558.804688 L 208.480469 558.804688 L 208.480469 543.085938 L 224.191406 543.085938 " fill-opacity="1" fill-rule="nonzero"/><path fill="#452616" d="M 224.191406 527.367188 L 224.191406 543.085938 L 208.480469 543.085938 L 208.480469 527.367188 L 224.191406 527.367188 " fill-opacity="1" fill-rule="nonzero"/><path fill="#452616" d="M 224.191406 511.667969 L 224.191406 527.367188 L 208.480469 527.367188 L 208.480469 511.667969 L 224.191406 511.667969 " fill-opacity="1" fill-rule="nonzero"/><path fill="#452616" d="M 224.191406 495.949219 L 224.191406 511.667969 L 208.480469 511.667969 L 208.480469 495.949219 L 224.191406 495.949219 " fill-opacity="1" fill-rule="nonzero"/><path fill="#452616" d="M 224.191406 480.230469 L 224.191406 495.949219 L 208.480469 495.949219 L 208.480469 480.230469 L 224.191406 480.230469 " fill-opacity="1" fill-rule="nonzero"/><path fill="#ef322b" d="M 208.480469 653.101562 L 208.480469 668.824219 L 192.785156 668.824219 L 192.785156 653.101562 L 208.480469 653.101562 " fill-opacity="1" fill-rule="nonzero"/><path fill="#ef322b" d="M 208.480469 637.382812 L 208.480469 653.101562 L 192.785156 653.101562 L 192.785156 637.382812 L 208.480469 637.382812 " fill-opacity="1" fill-rule="nonzero"/><path fill="#452616" d="M 208.480469 621.664062 L 208.480469 637.382812 L 192.785156 637.382812 L 192.785156 621.664062 L 208.480469 621.664062 " fill-opacity="1" fill-rule="nonzero"/><path fill="#452616" d="M 208.480469 605.964844 L 208.480469 621.664062 L 192.785156 621.664062 L 192.785156 605.964844 L 208.480469 605.964844 " fill-opacity="1" fill-rule="nonzero"/><path fill="#452616" d="M 208.480469 590.246094 L 208.480469 605.964844 L 192.785156 605.964844 L 192.785156 590.246094 L 208.480469 590.246094 " fill-opacity="1" fill-rule="nonzero"/><path fill="#452616" d="M 208.480469 574.527344 L 208.480469 590.246094 L 192.785156 590.246094 L 192.785156 574.527344 L 208.480469 574.527344 " fill-opacity="1" fill-rule="nonzero"/><path fill="#452616" d="M 208.480469 558.804688 L 208.480469 574.527344 L 192.785156 574.527344 L 192.785156 558.804688 L 208.480469 558.804688 " fill-opacity="1" fill-rule="nonzero"/><path fill="#452616" d="M 208.480469 543.085938 L 208.480469 558.804688 L 192.785156 558.804688 L 192.785156 543.085938 L 208.480469 543.085938 " fill-opacity="1" fill-rule="nonzero"/><path fill="#452616" d="M 208.480469 527.367188 L 208.480469 543.085938 L 192.785156 543.085938 L 192.785156 527.367188 L 208.480469 527.367188 " fill-opacity="1" fill-rule="nonzero"/><path fill="#452616" d="M 208.480469 511.667969 L 208.480469 527.367188 L 192.785156 527.367188 L 192.785156 511.667969 L 208.480469 511.667969 " fill-opacity="1" fill-rule="nonzero"/><path fill="#452616" d="M 208.480469 495.949219 L 208.480469 511.667969 L 192.785156 511.667969 L 192.785156 495.949219 L 208.480469 495.949219 " fill-opacity="1" fill-rule="nonzero"/><path fill="#ef322b" d="M 192.785156 668.824219 L 192.785156 684.542969 L 177.074219 684.542969 L 177.074219 668.824219 L 192.785156 668.824219 " fill-opacity="1" fill-rule="nonzero"/><path fill="#ef322b" d="M 192.785156 653.101562 L 192.785156 668.824219 L 177.074219 668.824219 L 177.074219 653.101562 L 192.785156 653.101562 " fill-opacity="1" fill-rule="nonzero"/><path fill="#452616" d="M 192.785156 621.664062 L 192.785156 637.382812 L 177.074219 637.382812 L 177.074219 621.664062 L 192.785156 621.664062 " fill-opacity="1" fill-rule="nonzero"/><path fill="#452616" d="M 192.785156 605.964844 L 192.785156 621.664062 L 177.074219 621.664062 L 177.074219 605.964844 L 192.785156 605.964844 " fill-opacity="1" fill-rule="nonzero"/><path fill="#452616" d="M 192.785156 590.246094 L 192.785156 605.964844 L 177.074219 605.964844 L 177.074219 590.246094 L 192.785156 590.246094 " fill-opacity="1" fill-rule="nonzero"/><path fill="#452616" d="M 192.785156 574.527344 L 192.785156 590.246094 L 177.074219 590.246094 L 177.074219 574.527344 L 192.785156 574.527344 " fill-opacity="1" fill-rule="nonzero"/><path fill="#452616" d="M 192.785156 558.804688 L 192.785156 574.527344 L 177.074219 574.527344 L 177.074219 558.804688 L 192.785156 558.804688 " fill-opacity="1" fill-rule="nonzero"/><path fill="#452616" d="M 192.785156 543.085938 L 192.785156 558.804688 L 177.074219 558.804688 L 177.074219 543.085938 L 192.785156 543.085938 " fill-opacity="1" fill-rule="nonzero"/><path fill="#452616" d="M 192.785156 527.367188 L 192.785156 543.085938 L 177.074219 543.085938 L 177.074219 527.367188 L 192.785156 527.367188 " fill-opacity="1" fill-rule="nonzero"/></svg>