<svg xmlns="http://www.w3.org/2000/svg" xmlns:xlink="http://www.w3.org/1999/xlink" width="1080" zoomAndPan="magnify" viewBox="0 0 810 809.999993" height="1080" preserveAspectRatio="xMidYMid meet" version="1.0"><defs><clipPath id="2d21b380f8"><path d="M 0.585938 663.265625 L 809.414062 663.265625 L 809.414062 810 L 0.585938 810 Z M 0.585938 663.265625 " clip-rule="nonzero"/></clipPath><clipPath id="b4e4c004f9"><path d="M 0.585938 542 L 809.414062 542 L 809.414062 810 L 0.585938 810 Z M 0.585938 542 " clip-rule="nonzero"/></clipPath><clipPath id="4964204c69"><path d="M 427 113.402344 L 435 113.402344 L 435 128 L 427 128 Z M 427 113.402344 " clip-rule="nonzero"/></clipPath></defs><rect x="-81" width="972" fill="#ffffff" y="-80.999999" height="971.999992" fill-opacity="1"/><rect x="-81" width="972" fill="#7826ab" y="-80.999999" height="971.999992" fill-opacity="1"/><g clip-path="url(#2d21b380f8)"><path fill="#ffffff" d="M 809.414062 810.148438 L 0.59375 810.148438 L 809.40625 810.140625 L 809.40625 663.273438 L 809.414062 663.273438 L 809.414062 810.148438 " fill-opacity="1" fill-rule="nonzero"/></g><g clip-path="url(#b4e4c004f9)"><path fill="#10112e" d="M 809.40625 810.140625 L 0.59375 810.140625 L 0.59375 663.273438 L 32.1875 663.273438 L 32.1875 604.921875 L 95.386719 604.921875 L 95.386719 663.273438 L 125.09375 663.273438 L 125.09375 777.445312 L 186.980469 777.445312 L 186.980469 729.464844 L 248.589844 729.464844 L 248.589844 584.304688 L 311.199219 584.304688 L 311.199219 542.945312 L 323.503906 542.945312 L 323.503906 569.828125 L 350.921875 569.828125 L 350.921875 597.246094 L 353.507812 597.246094 L 353.507812 597.953125 L 372.925781 597.953125 L 372.925781 597.246094 L 378.585938 597.246094 L 378.585938 597.207031 L 393.089844 597.207031 L 393.089844 624.632812 L 420.761719 624.632812 L 420.761719 597.207031 L 431.671875 597.207031 L 431.671875 597.246094 L 459.351562 597.246094 L 459.351562 569.828125 L 486.753906 569.828125 L 486.761719 548.667969 L 486.761719 542.945312 L 497.894531 542.945312 L 497.894531 584.304688 L 561.089844 584.304688 L 561.089844 729.464844 L 623.015625 729.464844 L 623.015625 777.445312 L 684.898438 777.445312 L 684.898438 663.273438 L 716.5 663.273438 L 716.5 604.921875 L 779.699219 604.921875 L 779.699219 663.273438 L 809.40625 663.273438 L 809.40625 810.140625 " fill-opacity="1" fill-rule="nonzero"/></g><path fill="#10112e" d="M 780.457031 586.535156 L 715.742188 586.535156 L 715.742188 551.269531 L 732.484375 551.269531 L 732.484375 519.652344 L 763.722656 519.652344 L 763.722656 551.269531 L 780.457031 551.269531 L 780.457031 586.535156 " fill-opacity="1" fill-rule="nonzero"/><path fill="#10112e" d="M 780.457031 503.265625 L 715.742188 503.265625 L 715.742188 485.597656 L 732.484375 485.597656 L 732.484375 469.820312 L 763.722656 469.820312 L 763.722656 485.597656 L 780.457031 485.597656 L 780.457031 503.265625 " fill-opacity="1" fill-rule="nonzero"/><path fill="#10112e" d="M 764.28125 458.859375 L 731.917969 458.859375 L 731.917969 450.503906 L 740.292969 450.503906 L 740.292969 442.136719 L 755.90625 442.136719 L 755.90625 450.503906 L 764.28125 450.503906 L 764.28125 458.859375 " fill-opacity="1" fill-rule="nonzero"/><path fill="#10112e" d="M 96.136719 586.535156 L 31.429688 586.535156 L 31.429688 551.269531 L 48.164062 551.269531 L 48.164062 519.652344 L 79.402344 519.652344 L 79.402344 551.269531 L 96.136719 551.269531 L 96.136719 586.535156 " fill-opacity="1" fill-rule="nonzero"/><path fill="#10112e" d="M 96.136719 503.265625 L 31.429688 503.265625 L 31.429688 485.597656 L 48.164062 485.597656 L 48.164062 469.820312 L 79.402344 469.820312 L 79.402344 485.597656 L 96.136719 485.597656 L 96.136719 503.265625 " fill-opacity="1" fill-rule="nonzero"/><path fill="#10112e" d="M 79.957031 458.859375 L 47.605469 458.859375 L 47.605469 450.503906 L 55.972656 450.503906 L 55.972656 442.136719 L 71.59375 442.136719 L 71.59375 450.503906 L 79.957031 450.503906 L 79.957031 458.859375 " fill-opacity="1" fill-rule="nonzero"/><path fill="#10112e" d="M 179.230469 765.75 L 136.4375 765.75 L 136.4375 673.921875 L 147.257812 673.921875 L 147.257812 653.945312 L 168.894531 653.945312 L 168.894531 673.921875 L 179.066406 673.921875 L 179.066406 713.015625 L 179.230469 765.75 " fill-opacity="1" fill-rule="nonzero"/><path fill="#10112e" d="M 167.351562 647.644531 L 146.996094 647.644531 L 146.996094 635.566406 L 152.726562 635.566406 L 152.726562 624.753906 L 163.417969 624.753906 L 163.417969 635.566406 L 167.351562 635.566406 L 167.351562 647.644531 " fill-opacity="1" fill-rule="nonzero"/><path fill="#10112e" d="M 167.351562 619.132812 L 146.996094 619.132812 L 146.996094 613.089844 L 152.726562 613.089844 L 152.726562 607.679688 L 163.417969 607.679688 L 163.417969 613.089844 L 167.351562 613.089844 L 167.351562 619.132812 " fill-opacity="1" fill-rule="nonzero"/><path fill="#10112e" d="M 163.621094 603.925781 L 152.539062 603.925781 L 152.539062 601.074219 L 155.402344 601.074219 L 155.402344 598.203125 L 160.75 598.203125 L 160.75 601.074219 L 163.621094 601.074219 L 163.621094 603.925781 " fill-opacity="1" fill-rule="nonzero"/><path fill="#10112e" d="M 675.082031 765.75 L 632.289062 765.75 L 632.289062 673.921875 L 643.101562 673.921875 L 643.101562 653.945312 L 664.738281 653.945312 L 664.738281 673.921875 L 674.917969 673.921875 L 674.917969 713.015625 L 675.082031 765.75 " fill-opacity="1" fill-rule="nonzero"/><path fill="#10112e" d="M 665 647.644531 L 642.847656 647.644531 L 642.847656 635.566406 L 648.578125 635.566406 L 648.578125 624.753906 L 659.269531 624.753906 L 659.269531 635.566406 L 665 635.566406 L 665 647.644531 " fill-opacity="1" fill-rule="nonzero"/><path fill="#10112e" d="M 665 619.132812 L 642.847656 619.132812 L 642.847656 613.089844 L 648.578125 613.089844 L 648.578125 607.679688 L 659.269531 607.679688 L 659.269531 613.089844 L 665 613.089844 L 665 619.132812 " fill-opacity="1" fill-rule="nonzero"/><path fill="#10112e" d="M 659.464844 603.925781 L 648.382812 603.925781 L 648.382812 601.074219 L 651.253906 601.074219 L 651.253906 598.203125 L 656.59375 598.203125 L 656.59375 601.074219 L 659.464844 601.074219 L 659.464844 603.925781 " fill-opacity="1" fill-rule="nonzero"/><path fill="#10112e" d="M 616.746094 719.972656 L 573.953125 719.972656 L 573.953125 653.789062 L 588.226562 653.789062 L 588.226562 697.980469 L 616.679688 697.980469 L 616.746094 719.972656 " fill-opacity="1" fill-rule="nonzero"/><path fill="#10112e" d="M 584.511719 590.214844 L 588.226562 590.214844 L 588.226562 589.785156 L 584.511719 589.785156 Z M 584.511719 590.214844 " fill-opacity="1" fill-rule="nonzero"/><path fill="#10112e" d="M 555.242188 564.335938 L 512.449219 564.335938 L 512.449219 548.199219 L 518.347656 551.761719 L 521.699219 546.199219 L 547.582031 561.785156 L 548.785156 559.78125 L 555.242188 563.652344 L 555.242188 564.335938 M 555.101562 519.476562 L 542.402344 511.820312 L 545.277344 507.046875 L 541.71875 504.898438 L 541.71875 488.089844 L 555.078125 488.089844 L 555.078125 511.597656 L 555.101562 519.476562 " fill-opacity="1" fill-rule="nonzero"/><path fill="#10112e" d="M 296.210938 564.335938 L 253.625 564.335938 L 258.792969 561.238281 L 261.042969 559.882812 L 261.5625 560.753906 L 261.734375 560.648438 L 262.425781 561.785156 L 287.800781 546.503906 L 290.410156 550.847656 L 290.921875 550.550781 L 291.648438 551.761719 L 296.210938 549.011719 L 296.210938 564.335938 M 253.550781 520.277344 L 253.582031 511.597656 L 253.582031 488.089844 L 268.523438 488.089844 L 268.523438 504.75 L 264.726562 507.046875 L 267.605469 511.820312 L 253.550781 520.277344 " fill-opacity="1" fill-rule="nonzero"/><path fill="#10112e" d="M 240.101562 719.972656 L 197.308594 719.972656 L 197.308594 697.980469 L 221.773438 697.980469 L 221.773438 653.789062 L 239.941406 653.789062 L 239.941406 667.234375 L 240.101562 719.972656 " fill-opacity="1" fill-rule="nonzero"/><path fill="#10112e" d="M 230.027344 590.214844 L 221.773438 590.214844 L 221.773438 583.453125 L 224.289062 581.941406 L 224.289062 589.792969 L 230.027344 589.792969 L 230.027344 590.214844 " fill-opacity="1" fill-rule="nonzero"/><path fill="#10112e" d="M 179.230469 584.054688 L 136.4375 584.054688 L 136.4375 541.175781 L 147.257812 541.175781 L 147.257812 521.191406 L 168.894531 521.191406 L 168.894531 541.175781 L 179.066406 541.175781 L 179.230469 584.054688 " fill-opacity="1" fill-rule="nonzero"/><path fill="#10112e" d="M 169.15625 514.898438 L 146.996094 514.898438 L 146.996094 502.828125 L 152.726562 502.828125 L 152.726562 491.996094 L 163.417969 491.996094 L 163.417969 502.828125 L 169.15625 502.828125 L 169.15625 514.898438 " fill-opacity="1" fill-rule="nonzero"/><path fill="#10112e" d="M 169.15625 486.386719 L 146.996094 486.386719 L 146.996094 480.335938 L 152.726562 480.335938 L 152.726562 474.941406 L 163.417969 474.941406 L 163.417969 480.335938 L 169.15625 480.335938 L 169.15625 486.386719 " fill-opacity="1" fill-rule="nonzero"/><path fill="#10112e" d="M 163.621094 471.1875 L 152.539062 471.1875 L 152.539062 468.320312 L 155.402344 468.320312 L 155.402344 465.457031 L 160.75 465.457031 L 160.75 468.320312 L 163.621094 468.320312 L 163.621094 471.1875 " fill-opacity="1" fill-rule="nonzero"/><path fill="#10112e" d="M 675.082031 584.054688 L 632.289062 584.054688 L 632.289062 541.175781 L 643.101562 541.175781 L 643.101562 521.191406 L 664.738281 521.191406 L 664.738281 541.175781 L 674.917969 541.175781 L 675.082031 584.054688 " fill-opacity="1" fill-rule="nonzero"/><path fill="#10112e" d="M 665 514.898438 L 642.847656 514.898438 L 642.847656 502.828125 L 648.578125 502.828125 L 648.578125 491.996094 L 659.269531 491.996094 L 659.269531 502.828125 L 665 502.828125 L 665 514.898438 " fill-opacity="1" fill-rule="nonzero"/><path fill="#10112e" d="M 665 486.386719 L 642.847656 486.386719 L 642.847656 480.335938 L 648.578125 480.335938 L 648.578125 474.941406 L 659.269531 474.941406 L 659.269531 480.335938 L 665 480.335938 L 665 486.386719 " fill-opacity="1" fill-rule="nonzero"/><path fill="#10112e" d="M 659.464844 471.1875 L 648.382812 471.1875 L 648.382812 468.320312 L 651.253906 468.320312 L 651.253906 465.457031 L 656.59375 465.457031 L 656.59375 468.320312 L 659.464844 468.320312 L 659.464844 471.1875 " fill-opacity="1" fill-rule="nonzero"/><path fill="#10112e" d="M 616.746094 538.277344 L 578.5 538.277344 L 573.953125 535.730469 L 573.953125 495.394531 L 584.769531 495.394531 L 584.769531 475.417969 L 606.410156 475.417969 L 606.410156 495.394531 L 616.582031 495.394531 L 616.582031 534.488281 L 616.746094 538.277344 " fill-opacity="1" fill-rule="nonzero"/><path fill="#10112e" d="M 606.667969 469.121094 L 584.511719 469.121094 L 584.511719 460.691406 L 596.421875 460.691406 L 596.421875 446.222656 L 600.933594 446.222656 L 600.933594 457.035156 L 606.667969 457.035156 L 606.667969 469.121094 " fill-opacity="1" fill-rule="nonzero"/><path fill="#10112e" d="M 606.667969 440.605469 L 596.421875 440.605469 L 596.421875 433.238281 L 590.242188 433.238281 L 590.242188 429.152344 L 600.933594 429.152344 L 600.933594 434.5625 L 606.667969 434.5625 L 606.667969 440.605469 " fill-opacity="1" fill-rule="nonzero"/><path fill="#10112e" d="M 601.125 425.398438 L 590.054688 425.398438 L 590.054688 422.542969 L 592.914062 422.542969 L 592.914062 419.675781 L 598.265625 419.675781 L 598.265625 422.542969 L 601.125 422.542969 L 601.125 425.398438 " fill-opacity="1" fill-rule="nonzero"/><path fill="#10112e" d="M 231.5 538.277344 L 197.308594 538.277344 L 197.308594 495.394531 L 208.128906 495.394531 L 208.128906 475.417969 L 229.765625 475.417969 L 229.765625 495.394531 L 239.941406 495.394531 L 239.941406 533.542969 L 231.5 538.277344 " fill-opacity="1" fill-rule="nonzero"/><path fill="#10112e" d="M 230.027344 469.121094 L 207.871094 469.121094 L 207.871094 457.035156 L 213.574219 457.035156 L 213.574219 460.691406 L 230.027344 460.691406 L 230.027344 469.121094 " fill-opacity="1" fill-rule="nonzero"/><path fill="#10112e" d="M 213.574219 440.605469 L 207.871094 440.605469 L 207.871094 434.5625 L 213.574219 434.5625 L 213.574219 440.605469 M 224.289062 433.238281 L 213.597656 433.238281 L 213.597656 429.152344 L 224.289062 429.152344 L 224.289062 433.238281 " fill-opacity="1" fill-rule="nonzero"/><path fill="#10112e" d="M 224.484375 425.398438 L 213.414062 425.398438 L 213.414062 422.542969 L 216.273438 422.542969 L 216.273438 419.675781 L 221.625 419.675781 L 221.625 422.542969 L 224.484375 422.542969 L 224.484375 425.398438 " fill-opacity="1" fill-rule="nonzero"/><path fill="#f254b1" d="M 588.226562 697.980469 L 625.246094 697.980469 L 625.246094 564.441406 L 588.226562 564.441406 Z M 588.226562 697.980469 " fill-opacity="1" fill-rule="nonzero"/><path fill="#f254b1" d="M 458.84375 471.203125 L 458.84375 505.792969 L 599.492188 590.214844 L 625.238281 564.46875 L 458.84375 471.203125 " fill-opacity="1" fill-rule="nonzero"/><path fill="#ef249b" d="M 569.71875 653.789062 L 642.648438 653.789062 L 642.648438 590.214844 L 569.71875 590.214844 Z M 569.71875 653.789062 " fill-opacity="1" fill-rule="nonzero"/><path fill="#ef249b" d="M 569.71875 653.789062 L 642.648438 653.789062 L 642.648438 625.75 L 569.71875 625.75 Z M 569.71875 653.789062 " fill-opacity="1" fill-rule="nonzero"/><path fill="#f254b1" d="M 506.3125 483.578125 L 479.390625 528.296875 L 518.347656 551.761719 L 545.277344 507.046875 L 506.3125 483.578125 " fill-opacity="1" fill-rule="nonzero"/><path fill="#f254b1" d="M 538.324219 509.359375 L 517.628906 543.75 L 547.582031 561.785156 L 568.277344 527.414062 L 538.324219 509.359375 " fill-opacity="1" fill-rule="nonzero"/><path fill="#ffffff" d="M 580.476562 564.441406 L 549.28125 545.359375 L 545.984375 550.847656 L 507.515625 527.679688 L 511.957031 520.308594 L 502.730469 514.761719 L 491.652344 534.019531 L 519.589844 550.847656 L 522.890625 545.359375 L 548.4375 560.753906 L 549.632812 558.769531 L 573.988281 573.394531 L 580.476562 564.441406 " fill-opacity="1" fill-rule="nonzero"/><path fill="#ffffff" d="M 596.683594 604.902344 L 573.988281 604.902344 L 573.988281 594.578125 L 570.296875 594.578125 L 570.296875 651.574219 L 588.570312 651.574219 L 588.570312 695.203125 L 614.960938 695.203125 L 614.960938 651.574219 L 596.683594 651.574219 L 596.683594 604.902344 " fill-opacity="1" fill-rule="nonzero"/><path fill="#f254b1" d="M 184.761719 697.980469 L 221.773438 697.980469 L 221.773438 564.441406 L 184.761719 564.441406 Z M 184.761719 697.980469 " fill-opacity="1" fill-rule="nonzero"/><path fill="#f254b1" d="M 351.152344 471.203125 L 351.152344 505.792969 L 210.507812 590.214844 L 184.765625 564.46875 L 351.152344 471.203125 " fill-opacity="1" fill-rule="nonzero"/><path fill="#ef249b" d="M 167.351562 653.789062 L 240.289062 653.789062 L 240.289062 590.214844 L 167.351562 590.214844 Z M 167.351562 653.789062 " fill-opacity="1" fill-rule="nonzero"/><path fill="#ef249b" d="M 167.351562 653.789062 L 240.289062 653.789062 L 240.289062 625.75 L 167.351562 625.75 Z M 167.351562 653.789062 " fill-opacity="1" fill-rule="nonzero"/><path fill="#f254b1" d="M 303.6875 483.578125 L 330.609375 528.296875 L 291.648438 551.761719 L 264.726562 507.046875 L 303.6875 483.578125 " fill-opacity="1" fill-rule="nonzero"/><path fill="#f254b1" d="M 271.683594 509.359375 L 292.378906 543.75 L 262.425781 561.785156 L 241.722656 527.414062 L 271.683594 509.359375 " fill-opacity="1" fill-rule="nonzero"/><path fill="#ffffff" d="M 229.53125 564.441406 L 260.714844 545.359375 L 264.015625 550.847656 L 302.484375 527.679688 L 298.039062 520.308594 L 307.277344 514.761719 L 318.347656 534.019531 L 290.410156 550.847656 L 287.109375 545.359375 L 261.5625 560.753906 L 260.367188 558.769531 L 236.007812 573.394531 L 229.53125 564.441406 " fill-opacity="1" fill-rule="nonzero"/><path fill="#ffffff" d="M 213.308594 604.902344 L 236.007812 604.902344 L 236.007812 594.578125 L 239.703125 594.578125 L 239.703125 651.574219 L 221.429688 651.574219 L 221.429688 695.203125 L 195.042969 695.203125 L 195.042969 651.574219 L 213.308594 651.574219 L 213.308594 604.902344 " fill-opacity="1" fill-rule="nonzero"/><path fill="#ef249b" d="M 568.886719 433.238281 L 568.886719 405.84375 L 541.472656 405.84375 L 541.472656 404.625 L 541.71875 404.625 L 541.71875 377.164062 L 514.171875 377.164062 L 514.171875 349.765625 L 486.761719 349.765625 L 486.753906 322.335938 L 459.351562 322.335938 L 459.351562 294.917969 L 431.671875 294.917969 L 431.671875 322.335938 L 378.585938 322.335938 L 378.585938 294.917969 L 350.921875 294.917969 L 350.921875 322.335938 L 323.503906 322.335938 L 323.503906 349.765625 L 296.09375 349.765625 L 296.09375 350.984375 L 295.945312 350.984375 L 295.945312 377.164062 L 268.546875 377.164062 L 268.546875 378.402344 L 268.523438 378.402344 L 268.523438 405.84375 L 241.113281 405.84375 L 241.113281 433.238281 L 213.574219 433.238281 L 213.574219 460.691406 L 241.113281 460.691406 L 241.113281 488.089844 L 268.523438 488.089844 L 268.523438 515.527344 L 295.945312 515.527344 L 295.945312 542.945312 L 323.503906 542.945312 L 323.503906 569.828125 L 350.921875 569.828125 L 350.921875 597.246094 L 378.585938 597.246094 L 378.585938 597.207031 L 393.089844 597.207031 L 393.089844 624.632812 L 420.761719 624.632812 L 420.761719 597.207031 L 431.671875 597.207031 L 431.671875 597.246094 L 459.351562 597.246094 L 459.351562 569.828125 L 486.753906 569.828125 L 486.761719 542.945312 L 514.0625 542.945312 L 514.0625 542.386719 L 514.171875 542.386719 L 514.171875 515.527344 L 541.472656 515.527344 L 541.472656 514.992188 L 541.71875 514.992188 L 541.71875 488.089844 L 568.886719 488.089844 L 568.886719 460.691406 L 596.421875 460.691406 L 596.421875 433.238281 L 568.886719 433.238281 " fill-opacity="1" fill-rule="nonzero"/><path fill="#ffffff" d="M 319.367188 358.03125 L 319.515625 358.03125 L 319.515625 356.851562 L 300.097656 356.851562 L 300.097656 358.03125 L 299.949219 358.03125 L 299.949219 383.539062 L 319.367188 383.539062 L 319.367188 358.03125 " fill-opacity="1" fill-rule="nonzero"/><path fill="#ffffff" d="M 265.953125 411.476562 L 246.539062 411.476562 L 246.539062 438.167969 L 265.953125 438.167969 L 265.953125 411.476562 " fill-opacity="1" fill-rule="nonzero"/><path fill="#ffffff" d="M 346.21875 330.117188 L 326.804688 330.117188 L 326.804688 356.851562 L 346.21875 356.851562 L 346.21875 330.117188 " fill-opacity="1" fill-rule="nonzero"/><path fill="#ffffff" d="M 239.121094 438.203125 L 239.121094 438.167969 L 219.707031 438.167969 L 219.707031 464.921875 L 239.121094 464.921875 L 239.121094 438.203125 " fill-opacity="1" fill-rule="nonzero"/><path fill="#ffffff" d="M 432.191406 330.117188 L 451.609375 330.117188 L 451.609375 303.40625 L 432.191406 303.40625 Z M 432.191406 330.117188 " fill-opacity="1" fill-rule="nonzero"/><path fill="#ffffff" d="M 353.507812 330.117188 L 372.925781 330.117188 L 372.925781 303.40625 L 353.507812 303.40625 Z M 353.507812 330.117188 " fill-opacity="1" fill-rule="nonzero"/><path fill="#ffffff" d="M 292.660156 384.742188 L 292.683594 384.742188 L 292.683594 383.539062 L 273.265625 383.539062 L 273.265625 384.742188 L 273.242188 384.742188 L 273.242188 411.476562 L 292.660156 411.476562 L 292.660156 384.742188 " fill-opacity="1" fill-rule="nonzero"/><path fill="#ffffff" d="M 399.882812 597.914062 L 399.882812 597.953125 L 394.601562 597.953125 L 394.601562 624.632812 L 414.015625 624.632812 L 414.015625 597.914062 L 399.882812 597.914062 " fill-opacity="1" fill-rule="nonzero"/><path fill="#ffffff" d="M 353.507812 597.953125 L 372.925781 597.953125 L 372.925781 571.238281 L 353.507812 571.238281 Z M 353.507812 597.953125 " fill-opacity="1" fill-rule="nonzero"/><path fill="#ffffff" d="M 246.539062 464.921875 L 246.539062 491.613281 L 265.953125 491.613281 L 265.953125 464.921875 L 246.539062 464.921875 " fill-opacity="1" fill-rule="nonzero"/><path fill="#ffffff" d="M 273.242188 491.613281 L 273.242188 518.332031 L 292.660156 518.332031 L 292.660156 491.613281 L 273.242188 491.613281 " fill-opacity="1" fill-rule="nonzero"/><path fill="#ffffff" d="M 326.804688 545.050781 L 326.804688 571.238281 L 346.21875 571.238281 L 346.21875 545.050781 L 326.804688 545.050781 " fill-opacity="1" fill-rule="nonzero"/><path fill="#ffffff" d="M 299.949219 518.332031 L 299.949219 545.050781 L 319.367188 545.050781 L 319.367188 518.332031 L 299.949219 518.332031 " fill-opacity="1" fill-rule="nonzero"/><path fill="#ffffff" d="M 361.726562 393.222656 L 361.726562 385.382812 L 353.886719 385.382812 L 353.886719 377.542969 L 330.371094 377.542969 L 330.371094 385.382812 L 322.53125 385.382812 L 322.53125 393.222656 L 314.699219 393.222656 L 314.699219 413.921875 L 322.53125 413.921875 L 322.53125 421.761719 L 330.371094 421.761719 L 330.371094 429.605469 L 353.886719 429.605469 L 353.886719 421.761719 L 361.726562 421.761719 L 361.726562 413.921875 L 369.566406 413.921875 L 369.566406 393.222656 L 361.726562 393.222656 " fill-opacity="1" fill-rule="nonzero"/><path fill="#ffffff" d="M 487.46875 393.222656 L 487.46875 385.382812 L 479.628906 385.382812 L 479.628906 377.542969 L 456.109375 377.542969 L 456.109375 385.382812 L 448.277344 385.382812 L 448.277344 393.222656 L 440.441406 393.222656 L 440.441406 413.921875 L 448.277344 413.921875 L 448.277344 421.761719 L 456.109375 421.761719 L 456.109375 429.605469 L 479.628906 429.605469 L 479.628906 421.761719 L 487.46875 421.761719 L 487.46875 413.921875 L 495.308594 413.921875 L 495.308594 393.222656 L 487.46875 393.222656 " fill-opacity="1" fill-rule="nonzero"/><path fill="#ffffff" d="M 367.5 528.949219 L 346.554688 528.949219 L 346.554688 508.007812 L 367.5 508.007812 L 367.5 528.949219 " fill-opacity="1" fill-rule="nonzero"/><path fill="#ffffff" d="M 399.480469 528.949219 L 378.535156 528.949219 L 378.535156 508.007812 L 399.480469 508.007812 L 399.480469 528.949219 " fill-opacity="1" fill-rule="nonzero"/><path fill="#ffffff" d="M 431.464844 528.949219 L 410.523438 528.949219 L 410.523438 508.007812 L 431.464844 508.007812 L 431.464844 528.949219 " fill-opacity="1" fill-rule="nonzero"/><path fill="#ffffff" d="M 463.445312 528.949219 L 442.496094 528.949219 L 442.496094 508.007812 L 463.445312 508.007812 L 463.445312 528.949219 " fill-opacity="1" fill-rule="nonzero"/><path fill="#610e32" d="M 487.714844 377.164062 L 514.171875 377.164062 L 514.171875 349.765625 L 487.714844 349.765625 Z M 487.714844 377.164062 " fill-opacity="1" fill-rule="nonzero"/><path fill="#610e32" d="M 459.351562 322.335938 L 451.609375 322.335938 L 451.609375 303.40625 L 432.890625 303.40625 L 432.890625 294.917969 L 459.351562 294.917969 L 459.351562 322.335938 " fill-opacity="1" fill-rule="nonzero"/><path fill="#666364" d="M 432.890625 322.335938 L 451.609375 322.335938 L 451.609375 303.40625 L 432.890625 303.40625 Z M 432.890625 322.335938 " fill-opacity="1" fill-rule="nonzero"/><path fill="#610e32" d="M 486.761719 349.765625 L 460.300781 349.765625 L 460.292969 322.335938 L 486.753906 322.335938 L 486.761719 349.765625 " fill-opacity="1" fill-rule="nonzero"/><path fill="#610e32" d="M 541.472656 405.84375 L 515.011719 405.84375 L 515.011719 404.625 L 515.25 404.625 L 515.25 377.164062 L 541.71875 377.164062 L 541.71875 404.625 L 541.472656 404.625 L 541.472656 405.84375 " fill-opacity="1" fill-rule="nonzero"/><path fill="#610e32" d="M 596.421875 460.691406 L 569.960938 460.691406 L 569.960938 433.238281 L 596.421875 433.238281 L 596.421875 460.691406 " fill-opacity="1" fill-rule="nonzero"/><path fill="#610e32" d="M 568.886719 488.089844 L 542.425781 488.089844 L 542.425781 460.691406 L 568.886719 460.691406 L 568.886719 488.089844 " fill-opacity="1" fill-rule="nonzero"/><path fill="#610e32" d="M 542.425781 433.238281 L 568.886719 433.238281 L 568.886719 405.84375 L 542.425781 405.84375 Z M 542.425781 433.238281 " fill-opacity="1" fill-rule="nonzero"/><path fill="#05050f" d="M 486.753906 569.828125 L 460.292969 569.828125 L 486.753906 569.828125 L 486.761719 548.667969 L 486.753906 569.828125 " fill-opacity="1" fill-rule="nonzero"/><path fill="#610e32" d="M 486.753906 569.828125 L 460.292969 569.828125 L 460.300781 542.945312 L 477.257812 542.945312 L 486.761719 548.667969 L 486.753906 569.828125 " fill-opacity="1" fill-rule="nonzero"/><path fill="#610e32" d="M 459.351562 597.246094 L 432.890625 597.246094 L 432.890625 569.828125 L 459.351562 569.828125 L 459.351562 597.246094 " fill-opacity="1" fill-rule="nonzero"/><path fill="#030308" d="M 625.179688 564.441406 L 578.5 538.277344 L 625.179688 564.441406 M 573.953125 535.730469 L 565.964844 531.246094 L 573.953125 535.730469 " fill-opacity="1" fill-rule="nonzero"/><path fill="#05050f" d="M 578.5 538.277344 L 573.953125 535.730469 L 578.5 538.277344 " fill-opacity="1" fill-rule="nonzero"/><path fill="#05050f" d="M 545.277344 507.046875 L 541.71875 504.898438 L 541.71875 488.089844 L 541.71875 504.898438 L 545.277344 507.046875 " fill-opacity="1" fill-rule="nonzero"/><path fill="#62213d" d="M 625.246094 697.980469 L 598.785156 697.980469 L 598.785156 695.203125 L 614.960938 695.203125 L 614.960938 653.789062 L 625.246094 653.789062 L 625.246094 697.980469 M 625.246094 590.214844 L 598.785156 590.214844 L 598.785156 589.792969 L 599.492188 590.214844 L 625.238281 564.46875 L 625.179688 564.441406 L 625.246094 564.441406 L 625.246094 590.214844 " fill-opacity="1" fill-rule="nonzero"/><path fill="#62213d" d="M 599.492188 590.214844 L 598.785156 589.792969 L 598.785156 564.441406 L 598.71875 564.441406 L 559.292969 542.335938 L 565.964844 531.246094 L 573.953125 535.730469 L 578.5 538.277344 L 625.179688 564.441406 L 625.238281 564.46875 L 599.492188 590.214844 " fill-opacity="1" fill-rule="nonzero"/><path fill="#610e32" d="M 642.648438 625.75 L 616.1875 625.75 L 616.1875 590.214844 L 598.785156 590.214844 L 642.648438 590.214844 L 642.648438 625.75 " fill-opacity="1" fill-rule="nonzero"/><path fill="#610e32" d="M 642.648438 653.789062 L 616.1875 653.789062 L 616.1875 625.75 L 642.648438 625.75 L 642.648438 653.789062 " fill-opacity="1" fill-rule="nonzero"/><path fill="#62213d" d="M 531.277344 521.066406 L 522.085938 515.527344 L 534.613281 515.527344 L 531.277344 521.066406 M 542.394531 511.820312 L 541.71875 511.410156 L 541.71875 504.898438 L 545.277344 507.046875 L 542.394531 511.820312 " fill-opacity="1" fill-rule="nonzero"/><path fill="#62213d" d="M 559.292969 542.335938 L 539.503906 531.246094 L 541.816406 527.414062 L 531.277344 521.066406 L 534.613281 515.527344 L 541.472656 515.527344 L 541.472656 514.992188 L 541.71875 514.992188 L 541.71875 511.410156 L 542.394531 511.820312 L 568.277344 527.414062 L 565.964844 531.246094 L 559.292969 542.335938 " fill-opacity="1" fill-rule="nonzero"/><path fill="#666364" d="M 598.785156 695.203125 L 614.960938 695.203125 L 614.960938 653.789062 L 598.785156 653.789062 Z M 598.785156 695.203125 " fill-opacity="1" fill-rule="nonzero"/><path fill="#610e32" d="M 541.472656 515.527344 L 522.085938 515.527344 L 515.933594 511.820312 L 518.816406 507.046875 L 515.25 504.898438 L 515.25 488.089844 L 541.71875 488.089844 L 541.71875 514.992188 L 541.472656 514.992188 L 541.472656 515.527344 " fill-opacity="1" fill-rule="nonzero"/><path fill="#610e32" d="M 420.761719 624.632812 L 414.015625 624.632812 L 414.015625 597.914062 L 399.882812 597.914062 L 399.882812 597.953125 L 394.601562 597.953125 L 394.601562 624.632812 L 394.304688 624.632812 L 394.304688 597.207031 L 405.21875 597.207031 L 405.21875 597.246094 L 420.761719 597.246094 L 420.761719 624.632812 " fill-opacity="1" fill-rule="nonzero"/><path fill="#666364" d="M 414.015625 624.632812 L 394.601562 624.632812 L 394.601562 597.953125 L 399.882812 597.953125 L 399.882812 597.914062 L 414.015625 597.914062 L 414.015625 624.632812 " fill-opacity="1" fill-rule="nonzero"/><path fill="#05050f" d="M 262.425781 561.785156 L 261.734375 560.648438 L 261.5625 560.753906 L 261.042969 559.882812 L 258.792969 561.238281 L 261.042969 559.882812 L 261.5625 560.753906 L 261.734375 560.648438 L 262.425781 561.785156 M 291.648438 551.761719 L 290.921875 550.550781 L 290.410156 550.847656 L 287.800781 546.503906 L 290.410156 550.847656 L 290.921875 550.550781 L 291.648438 551.761719 " fill-opacity="1" fill-rule="nonzero"/><path fill="#62213d" d="M 221.773438 697.980469 L 195.3125 697.980469 L 195.3125 695.203125 L 221.429688 695.203125 L 221.429688 653.789062 L 221.773438 653.789062 L 221.773438 697.980469 M 221.773438 590.214844 L 195.3125 590.214844 L 195.3125 583.453125 L 200.578125 580.292969 L 210.507812 590.214844 L 221.773438 583.453125 L 221.773438 590.214844 " fill-opacity="1" fill-rule="nonzero"/><path fill="#62213d" d="M 210.507812 590.214844 L 200.578125 580.292969 L 234.582031 559.882812 L 235.101562 560.753906 L 235.273438 560.648438 L 235.390625 560.851562 L 229.53125 564.441406 L 236.007812 573.394531 L 260.367188 558.769531 L 261.042969 559.882812 L 258.792969 561.238281 L 221.773438 583.453125 L 210.507812 590.214844 " fill-opacity="1" fill-rule="nonzero"/><path fill="#610e32" d="M 240.289062 625.75 L 239.703125 625.75 L 239.703125 594.578125 L 236.007812 594.578125 L 236.007812 604.902344 L 213.820312 604.902344 L 213.820312 590.214844 L 195.3125 590.214844 L 240.289062 590.214844 L 240.289062 625.75 " fill-opacity="1" fill-rule="nonzero"/><path fill="#610e32" d="M 240.289062 653.789062 L 221.429688 653.789062 L 221.429688 651.574219 L 239.703125 651.574219 L 239.703125 625.75 L 240.289062 625.75 L 240.289062 653.789062 " fill-opacity="1" fill-rule="nonzero"/><path fill="#62213d" d="M 291.648438 551.761719 L 290.921875 550.550781 L 297.042969 546.855469 L 297.042969 548.511719 L 291.648438 551.761719 " fill-opacity="1" fill-rule="nonzero"/><path fill="#62213d" d="M 262.425781 561.785156 L 261.734375 560.648438 L 287.109375 545.359375 L 287.800781 546.503906 L 287.792969 546.503906 L 262.425781 561.785156 M 264.015625 550.847656 L 264 550.816406 L 264.453125 550.550781 L 264.476562 550.578125 L 264.015625 550.847656 " fill-opacity="1" fill-rule="nonzero"/><path fill="#666364" d="M 236.007812 573.394531 L 229.53125 564.441406 L 235.390625 560.851562 L 235.957031 561.785156 L 261.339844 546.503906 L 263.949219 550.847656 L 264 550.816406 L 264.015625 550.847656 L 264.476562 550.578125 L 265.1875 551.761719 L 276.328125 545.050781 L 292.90625 545.050781 L 292.90625 542.945312 L 297.042969 542.945312 L 297.042969 546.855469 L 290.921875 550.550781 L 290.410156 550.847656 L 287.800781 546.503906 L 287.109375 545.359375 L 261.734375 560.648438 L 261.5625 560.753906 L 261.042969 559.882812 L 260.367188 558.769531 L 236.007812 573.394531 " fill-opacity="1" fill-rule="nonzero"/><path fill="#666364" d="M 221.429688 695.203125 L 195.3125 695.203125 L 195.3125 653.789062 L 213.820312 653.789062 L 213.820312 604.902344 L 236.007812 604.902344 L 236.007812 594.578125 L 239.703125 594.578125 L 239.703125 651.574219 L 221.429688 651.574219 L 221.429688 695.203125 " fill-opacity="1" fill-rule="nonzero"/><path fill="#610e32" d="M 352.125 597.246094 L 353.507812 597.246094 L 353.507812 597.207031 L 352.125 597.207031 Z M 352.125 597.246094 " fill-opacity="1" fill-rule="nonzero"/><path fill="#666364" d="M 366.632812 597.953125 L 353.507812 597.953125 L 353.507812 597.207031 L 366.632812 597.207031 L 366.632812 597.953125 " fill-opacity="1" fill-rule="nonzero"/><path fill="#610e32" d="M 378.585938 322.335938 L 372.925781 322.335938 L 372.925781 303.40625 L 353.507812 303.40625 L 353.507812 322.335938 L 352.125 322.335938 L 352.125 294.917969 L 378.585938 294.917969 L 378.585938 322.335938 " fill-opacity="1" fill-rule="nonzero"/><path fill="#666364" d="M 353.507812 322.335938 L 372.925781 322.335938 L 372.925781 303.40625 L 353.507812 303.40625 Z M 353.507812 322.335938 " fill-opacity="1" fill-rule="nonzero"/><path fill="#fddb19" d="M 220.984375 302.121094 L 229.683594 286.355469 L 213.941406 277.660156 L 222.640625 261.902344 L 206.886719 253.199219 L 215.589844 237.453125 L 215.269531 237.265625 L 199.695312 228.667969 L 199.367188 228.488281 L 190.675781 244.238281 L 174.929688 235.542969 L 166.222656 251.296875 L 150.476562 242.601562 L 141.773438 258.359375 L 125.953125 249.625 L 117.253906 265.382812 L 116.449219 266.824219 L 132.269531 275.5625 L 123.578125 291.328125 L 139.316406 300.023438 L 130.613281 315.78125 L 146.367188 324.484375 L 137.671875 340.238281 L 137.992188 340.410156 L 153.566406 349.015625 L 153.886719 349.195312 L 162.585938 333.445312 L 178.332031 342.140625 L 187.042969 326.378906 L 202.785156 335.082031 L 211.488281 319.324219 L 227.308594 328.066406 L 228.109375 326.617188 L 236.8125 310.851562 L 220.984375 302.121094 " fill-opacity="1" fill-rule="nonzero"/><path fill="#f254b1" d="M 201.753906 275.28125 L 198.683594 264.625 L 188.023438 267.695312 L 184.945312 257.027344 L 174.289062 260.097656 L 171.214844 249.441406 L 171 249.5 L 160.453125 252.546875 L 160.230469 252.605469 L 163.308594 263.269531 L 152.652344 266.347656 L 155.730469 277.011719 L 145.066406 280.082031 L 148.140625 290.753906 L 137.433594 293.839844 L 140.511719 304.503906 L 140.792969 305.484375 L 151.5 302.402344 L 154.578125 313.066406 L 165.234375 309.988281 L 168.308594 320.664062 L 178.972656 317.578125 L 182.046875 328.242188 L 182.269531 328.183594 L 192.808594 325.136719 L 193.023438 325.078125 L 189.945312 314.414062 L 200.609375 311.34375 L 197.535156 300.675781 L 208.1875 297.601562 L 205.113281 286.929688 L 215.828125 283.84375 L 215.546875 282.855469 L 212.46875 272.199219 L 201.753906 275.28125 " fill-opacity="1" fill-rule="nonzero"/><path fill="#ef249b" d="M 192.132812 280.476562 L 190.238281 273.898438 L 183.660156 275.792969 L 181.757812 269.21875 L 175.183594 271.113281 L 173.289062 264.535156 L 173.152344 264.570312 L 166.644531 266.445312 L 166.511719 266.488281 L 168.414062 273.058594 L 161.835938 274.960938 L 163.730469 281.539062 L 157.15625 283.441406 L 159.050781 290.019531 L 152.445312 291.921875 L 154.347656 298.507812 L 154.515625 299.109375 L 161.125 297.207031 L 163.027344 303.785156 L 169.59375 301.890625 L 171.496094 308.464844 L 178.074219 306.570312 L 179.96875 313.148438 L 180.101562 313.113281 L 186.609375 311.238281 L 186.742188 311.195312 L 184.84375 304.625 L 191.417969 302.722656 L 189.523438 296.144531 L 196.097656 294.25 L 194.203125 287.664062 L 200.808594 285.761719 L 200.640625 285.152344 L 198.738281 278.574219 L 192.132812 280.476562 " fill-opacity="1" fill-rule="nonzero"/><path fill="#fee946" d="M 176.617188 251.023438 L 168.769531 246.691406 L 174.929688 235.542969 L 183.273438 240.15625 L 177.394531 250.808594 L 176.617188 251.023438 " fill-opacity="1" fill-rule="nonzero"/><path fill="#14153a" d="M 144.324219 253.75 L 144.316406 253.75 L 150.476562 242.601562 L 144.324219 253.75 " fill-opacity="1" fill-rule="nonzero"/><path fill="#fee946" d="M 152.667969 258.359375 L 144.324219 253.75 L 150.476562 242.601562 L 158.820312 247.21875 L 152.667969 258.359375 " fill-opacity="1" fill-rule="nonzero"/><path fill="#fee946" d="M 201.566406 244.238281 L 193.222656 239.628906 L 199.367188 228.488281 L 199.695312 228.667969 L 207.71875 233.097656 L 201.566406 244.238281 " fill-opacity="1" fill-rule="nonzero"/><path fill="#14153a" d="M 227.308594 328.066406 L 228.109375 326.617188 L 229.847656 323.449219 L 229.855469 323.449219 L 228.109375 326.617188 L 227.308594 328.066406 " fill-opacity="1" fill-rule="nonzero"/><path fill="#fee946" d="M 227.308594 328.066406 L 219.839844 323.933594 L 222.382812 319.324219 L 229.847656 323.449219 L 228.109375 326.617188 L 227.308594 328.066406 " fill-opacity="1" fill-rule="nonzero"/><path fill="#14153a" d="M 153.886719 349.195312 L 153.566406 349.015625 L 137.992188 340.410156 L 137.671875 340.238281 L 137.992188 340.410156 L 153.566406 349.015625 L 153.886719 349.195312 L 156.433594 344.578125 L 153.886719 349.195312 M 134.300781 254.234375 L 125.953125 249.625 L 134.300781 254.234375 " fill-opacity="1" fill-rule="nonzero"/><path fill="#fee946" d="M 153.886719 349.195312 L 153.566406 349.015625 L 137.992188 340.410156 L 137.671875 340.238281 L 146.367188 324.484375 L 130.613281 315.78125 L 139.253906 300.148438 L 140.511719 304.503906 L 140.792969 305.484375 L 148.417969 303.292969 L 141.515625 315.78125 L 157.257812 324.484375 L 148.566406 340.238281 L 148.894531 340.410156 L 156.433594 344.578125 L 153.886719 349.195312 M 139.195312 299.957031 L 123.578125 291.328125 L 132.269531 275.5625 L 116.449219 266.824219 L 117.253906 265.382812 L 125.953125 249.625 L 134.300781 254.234375 L 128.144531 265.382812 L 127.34375 266.824219 L 143.171875 275.5625 L 134.46875 291.328125 L 138.476562 293.542969 L 137.433594 293.839844 L 139.195312 299.957031 " fill-opacity="1" fill-rule="nonzero"/><path fill="#f792cd" d="M 140.792969 305.484375 L 140.511719 304.503906 L 139.253906 300.148438 L 139.195312 299.957031 L 137.433594 293.839844 L 138.476562 293.542969 L 150.089844 299.957031 L 150.148438 300.148438 L 148.417969 303.292969 L 140.792969 305.484375 " fill-opacity="1" fill-rule="nonzero"/><path fill="#14153a" d="M 202.785156 335.082031 L 205.335938 330.464844 L 202.785156 335.082031 " fill-opacity="1" fill-rule="nonzero"/><path fill="#fee946" d="M 202.785156 335.082031 L 195.386719 330.992188 L 197.660156 326.882812 L 198.433594 326.660156 L 205.335938 330.464844 L 202.785156 335.082031 " fill-opacity="1" fill-rule="nonzero"/><path fill="#14153a" d="M 178.332031 342.140625 L 180.882812 337.535156 L 178.332031 342.140625 " fill-opacity="1" fill-rule="nonzero"/><path fill="#fee946" d="M 178.332031 342.140625 L 170.933594 338.054688 L 173.480469 333.445312 L 180.882812 337.535156 L 178.332031 342.140625 " fill-opacity="1" fill-rule="nonzero"/><path fill="#fbc81b" d="M 246.167969 270.398438 L 230.585938 268.851562 L 255 261.621094 L 256.6875 267.3125 L 246.167969 270.398438 " fill-opacity="1" fill-rule="nonzero"/><path fill="#fddb19" d="M 231.34375 280.261719 L 226.683594 264.488281 L 238.402344 261.0625 L 243.058594 276.828125 L 231.34375 280.261719 " fill-opacity="1" fill-rule="nonzero"/><path fill="#ef249b" d="M 230.140625 276.1875 L 227.886719 268.578125 L 246.671875 263.046875 L 248.921875 270.652344 L 230.140625 276.1875 " fill-opacity="1" fill-rule="nonzero"/><path fill="#fbc81b" d="M 111.40625 312.449219 L 121.324219 300.34375 L 98.953125 312.503906 L 101.78125 317.710938 L 111.40625 312.449219 " fill-opacity="1" fill-rule="nonzero"/><path fill="#fddb19" d="M 128.859375 308.941406 L 121.003906 294.5 L 110.296875 300.359375 L 118.144531 314.796875 L 128.859375 308.941406 " fill-opacity="1" fill-rule="nonzero"/><path fill="#ef249b" d="M 126.824219 305.210938 L 123.042969 298.230469 L 105.847656 307.613281 L 109.636719 314.582031 L 126.824219 305.210938 " fill-opacity="1" fill-rule="nonzero"/><path fill="#fbc81b" d="M 153.746094 218.910156 L 163.332031 231.28125 L 156.464844 206.757812 L 150.757812 208.355469 L 153.746094 218.910156 " fill-opacity="1" fill-rule="nonzero"/><path fill="#fddb19" d="M 153.269531 236.714844 L 169.105469 232.277344 L 165.773438 220.527344 L 149.949219 224.964844 L 153.269531 236.714844 " fill-opacity="1" fill-rule="nonzero"/><path fill="#ef249b" d="M 157.363281 235.5625 L 165.003906 233.421875 L 159.6875 214.574219 L 152.050781 216.714844 L 157.363281 235.5625 " fill-opacity="1" fill-rule="nonzero"/><path fill="#fbc81b" d="M 198.789062 354.09375 L 189.195312 341.710938 L 196.070312 366.246094 L 201.777344 364.640625 L 198.789062 354.09375 " fill-opacity="1" fill-rule="nonzero"/><path fill="#fddb19" d="M 199.257812 336.285156 L 183.429688 340.722656 L 186.75 352.472656 L 202.578125 348.035156 L 199.257812 336.285156 " fill-opacity="1" fill-rule="nonzero"/><path fill="#ef249b" d="M 195.164062 337.429688 L 187.523438 339.570312 L 192.835938 358.425781 L 200.476562 356.285156 L 195.164062 337.429688 " fill-opacity="1" fill-rule="nonzero"/><path fill="#fbc81b" d="M 217.023438 209.203125 L 215.0625 224.742188 L 227.546875 202.542969 L 222.375 199.628906 L 217.023438 209.203125 " fill-opacity="1" fill-rule="nonzero"/><path fill="#fddb19" d="M 204.109375 221.457031 L 218.433594 229.515625 L 224.394531 218.863281 L 210.070312 210.800781 L 204.109375 221.457031 " fill-opacity="1" fill-rule="nonzero"/><path fill="#ef249b" d="M 207.816406 223.546875 L 214.726562 227.433594 L 224.296875 210.347656 L 217.386719 206.453125 L 207.816406 223.546875 " fill-opacity="1" fill-rule="nonzero"/><path fill="#fbc81b" d="M 138.929688 363.800781 L 140.898438 348.257812 L 128.421875 370.457031 L 133.585938 373.371094 L 138.929688 363.800781 " fill-opacity="1" fill-rule="nonzero"/><path fill="#fddb19" d="M 151.851562 351.535156 L 137.523438 343.480469 L 131.5625 354.136719 L 145.898438 362.203125 L 151.851562 351.535156 " fill-opacity="1" fill-rule="nonzero"/><path fill="#ef249b" d="M 148.148438 349.457031 L 141.230469 345.5625 L 131.660156 362.65625 L 138.570312 366.542969 L 148.148438 349.457031 " fill-opacity="1" fill-rule="nonzero"/><path fill="#fbc81b" d="M 252.402344 328.019531 L 236.894531 325.902344 L 258.960938 338.605469 L 261.917969 333.460938 L 252.402344 328.019531 " fill-opacity="1" fill-rule="nonzero"/><path fill="#fddb19" d="M 240.273438 314.976562 L 232.078125 329.230469 L 242.679688 335.296875 L 250.871094 321.042969 L 240.273438 314.976562 " fill-opacity="1" fill-rule="nonzero"/><path fill="#ef249b" d="M 238.15625 318.671875 L 234.203125 325.554688 L 251.183594 335.28125 L 255.144531 328.40625 L 238.15625 318.671875 " fill-opacity="1" fill-rule="nonzero"/><path fill="#fbc81b" d="M 100.265625 250.132812 L 115.632812 253.125 L 94.324219 239.191406 L 91.074219 244.15625 L 100.265625 250.132812 " fill-opacity="1" fill-rule="nonzero"/><path fill="#fddb19" d="M 111.628906 263.84375 L 120.625 250.078125 L 110.386719 243.425781 L 101.394531 257.183594 L 111.628906 263.84375 " fill-opacity="1" fill-rule="nonzero"/><path fill="#ef249b" d="M 113.953125 260.285156 L 118.300781 253.640625 L 101.894531 242.953125 L 97.554688 249.589844 L 113.953125 260.285156 " fill-opacity="1" fill-rule="nonzero"/><path fill="#fddb19" d="M 677.996094 302.121094 L 686.695312 286.355469 L 670.945312 277.660156 L 679.644531 261.902344 L 663.898438 253.199219 L 672.59375 237.453125 L 672.273438 237.265625 L 656.699219 228.667969 L 656.378906 228.488281 L 647.679688 244.238281 L 631.933594 235.542969 L 623.226562 251.296875 L 607.480469 242.601562 L 598.777344 258.359375 L 582.957031 249.625 L 574.257812 265.382812 L 573.453125 266.824219 L 589.28125 275.5625 L 580.582031 291.328125 L 596.324219 300.023438 L 587.625 315.78125 L 603.378906 324.484375 L 594.675781 340.238281 L 594.996094 340.410156 L 610.570312 349.015625 L 610.898438 349.195312 L 619.589844 333.445312 L 635.335938 342.140625 L 644.046875 326.378906 L 659.789062 335.082031 L 668.492188 319.324219 L 684.3125 328.066406 L 685.113281 326.617188 L 693.816406 310.851562 L 677.996094 302.121094 " fill-opacity="1" fill-rule="nonzero"/><path fill="#f254b1" d="M 658.765625 275.28125 L 655.6875 264.625 L 645.027344 267.695312 L 641.949219 257.027344 L 631.292969 260.097656 L 628.21875 249.441406 L 627.996094 249.5 L 617.457031 252.546875 L 617.242188 252.605469 L 620.3125 263.269531 L 609.65625 266.347656 L 612.734375 277.011719 L 602.078125 280.082031 L 605.144531 290.753906 L 594.4375 293.839844 L 597.515625 304.503906 L 597.796875 305.484375 L 608.503906 302.402344 L 611.582031 313.066406 L 622.242188 309.988281 L 625.320312 320.664062 L 635.976562 317.578125 L 639.050781 328.242188 L 639.273438 328.183594 L 649.8125 325.136719 L 650.027344 325.078125 L 646.957031 314.414062 L 657.613281 311.34375 L 654.539062 300.675781 L 665.199219 297.601562 L 662.125 286.929688 L 672.832031 283.84375 L 672.550781 282.855469 L 669.472656 272.199219 L 658.765625 275.28125 " fill-opacity="1" fill-rule="nonzero"/><path fill="#ef249b" d="M 649.136719 280.476562 L 647.242188 273.898438 L 640.664062 275.792969 L 638.761719 269.21875 L 632.1875 271.113281 L 630.292969 264.535156 L 630.15625 264.570312 L 623.65625 266.445312 L 623.523438 266.488281 L 625.417969 273.058594 L 618.839844 274.960938 L 620.742188 281.539062 L 614.167969 283.441406 L 616.0625 290.019531 L 609.457031 291.921875 L 611.351562 298.507812 L 611.527344 299.109375 L 618.132812 297.207031 L 620.03125 303.785156 L 626.605469 301.890625 L 628.507812 308.464844 L 635.082031 306.570312 L 636.980469 313.148438 L 637.113281 313.113281 L 643.613281 311.238281 L 643.746094 311.195312 L 641.851562 304.625 L 648.429688 302.722656 L 646.535156 296.144531 L 653.109375 294.25 L 651.207031 287.664062 L 657.820312 285.761719 L 657.644531 285.152344 L 655.742188 278.574219 L 649.136719 280.476562 " fill-opacity="1" fill-rule="nonzero"/><path fill="#fee946" d="M 633.621094 251.023438 L 625.773438 246.691406 L 631.933594 235.542969 L 640.277344 240.15625 L 634.398438 250.808594 L 633.621094 251.023438 " fill-opacity="1" fill-rule="nonzero"/><path fill="#fee946" d="M 609.679688 258.359375 L 601.328125 253.75 L 607.480469 242.601562 L 615.832031 247.21875 L 609.679688 258.359375 " fill-opacity="1" fill-rule="nonzero"/><path fill="#14153a" d="M 650.226562 239.628906 L 656.378906 228.488281 L 650.226562 239.628906 M 664.722656 233.097656 L 656.699219 228.667969 L 664.722656 233.097656 " fill-opacity="1" fill-rule="nonzero"/><path fill="#fee946" d="M 658.570312 244.238281 L 650.226562 239.628906 L 656.378906 228.488281 L 656.699219 228.667969 L 664.722656 233.097656 L 658.570312 244.238281 " fill-opacity="1" fill-rule="nonzero"/><path fill="#14153a" d="M 684.3125 328.066406 L 685.113281 326.617188 L 686.859375 323.449219 L 685.113281 326.617188 L 684.3125 328.066406 " fill-opacity="1" fill-rule="nonzero"/><path fill="#fee946" d="M 684.3125 328.066406 L 676.84375 323.933594 L 679.394531 319.324219 L 686.859375 323.449219 L 685.113281 326.617188 L 684.3125 328.066406 " fill-opacity="1" fill-rule="nonzero"/><path fill="#14153a" d="M 596.257812 300.148438 L 596.238281 300.0625 L 596.257812 300.148438 " fill-opacity="1" fill-rule="nonzero"/><path fill="#fee946" d="M 610.898438 349.195312 L 610.570312 349.015625 L 594.996094 340.410156 L 594.675781 340.238281 L 603.378906 324.484375 L 587.625 315.78125 L 596.257812 300.148438 L 597.515625 304.503906 L 597.796875 305.484375 L 605.421875 303.292969 L 598.519531 315.78125 L 614.261719 324.484375 L 605.570312 340.238281 L 605.898438 340.410156 L 613.4375 344.578125 L 610.898438 349.195312 " fill-opacity="1" fill-rule="nonzero"/><path fill="#14153a" d="M 596.199219 299.957031 L 580.582031 291.328125 L 596.199219 299.957031 M 591.308594 254.234375 L 582.957031 249.625 L 591.308594 254.234375 " fill-opacity="1" fill-rule="nonzero"/><path fill="#fee946" d="M 596.199219 299.957031 L 580.582031 291.328125 L 589.28125 275.5625 L 573.453125 266.824219 L 574.257812 265.382812 L 582.957031 249.625 L 591.308594 254.234375 L 585.148438 265.382812 L 584.355469 266.824219 L 600.175781 275.5625 L 591.472656 291.328125 L 595.484375 293.542969 L 594.4375 293.839844 L 596.199219 299.957031 " fill-opacity="1" fill-rule="nonzero"/><path fill="#f792cd" d="M 597.796875 305.484375 L 597.515625 304.503906 L 596.257812 300.148438 L 596.238281 300.0625 L 596.199219 299.957031 L 594.4375 293.839844 L 595.484375 293.542969 L 607.101562 299.957031 L 607.152344 300.148438 L 605.421875 303.292969 L 597.796875 305.484375 " fill-opacity="1" fill-rule="nonzero"/><path fill="#fee946" d="M 659.789062 335.082031 L 652.398438 330.992188 L 654.664062 326.882812 L 655.445312 326.660156 L 662.339844 330.464844 L 659.789062 335.082031 " fill-opacity="1" fill-rule="nonzero"/><path fill="#14153a" d="M 635.335938 342.140625 L 637.886719 337.535156 L 635.335938 342.140625 " fill-opacity="1" fill-rule="nonzero"/><path fill="#fee946" d="M 635.335938 342.140625 L 627.941406 338.054688 L 630.492188 333.445312 L 637.886719 337.535156 L 635.335938 342.140625 " fill-opacity="1" fill-rule="nonzero"/><path fill="#fbc81b" d="M 703.171875 270.398438 L 687.597656 268.851562 L 712.011719 261.621094 L 713.699219 267.3125 L 703.171875 270.398438 " fill-opacity="1" fill-rule="nonzero"/><path fill="#fddb19" d="M 688.355469 280.261719 L 683.6875 264.488281 L 695.40625 261.0625 L 700.066406 276.828125 L 688.355469 280.261719 " fill-opacity="1" fill-rule="nonzero"/><path fill="#ef249b" d="M 687.144531 276.1875 L 684.890625 268.578125 L 703.675781 263.046875 L 705.925781 270.652344 L 687.144531 276.1875 " fill-opacity="1" fill-rule="nonzero"/><path fill="#fbc81b" d="M 568.410156 312.449219 L 578.335938 300.34375 L 555.964844 312.503906 L 558.785156 317.710938 L 568.410156 312.449219 " fill-opacity="1" fill-rule="nonzero"/><path fill="#fddb19" d="M 585.863281 308.941406 L 578.015625 294.5 L 567.300781 300.359375 L 575.148438 314.796875 L 585.863281 308.941406 " fill-opacity="1" fill-rule="nonzero"/><path fill="#ef249b" d="M 583.828125 305.210938 L 580.046875 298.230469 L 562.859375 307.613281 L 566.648438 314.582031 L 583.828125 305.210938 " fill-opacity="1" fill-rule="nonzero"/><path fill="#fbc81b" d="M 610.75 218.910156 L 620.339844 231.28125 L 613.46875 206.757812 L 607.761719 208.355469 L 610.75 218.910156 " fill-opacity="1" fill-rule="nonzero"/><path fill="#fddb19" d="M 610.28125 236.714844 L 626.109375 232.277344 L 622.785156 220.527344 L 606.960938 224.964844 L 610.28125 236.714844 " fill-opacity="1" fill-rule="nonzero"/><path fill="#ef249b" d="M 614.367188 235.5625 L 622.011719 233.421875 L 616.699219 214.574219 L 609.0625 216.714844 L 614.367188 235.5625 " fill-opacity="1" fill-rule="nonzero"/><path fill="#fbc81b" d="M 655.792969 354.09375 L 646.199219 341.710938 L 653.074219 366.246094 L 658.78125 364.640625 L 655.792969 354.09375 " fill-opacity="1" fill-rule="nonzero"/><path fill="#fddb19" d="M 656.269531 336.285156 L 640.433594 340.722656 L 643.753906 352.472656 L 659.589844 348.035156 L 656.269531 336.285156 " fill-opacity="1" fill-rule="nonzero"/><path fill="#ef249b" d="M 652.175781 337.429688 L 644.527344 339.570312 L 649.839844 358.425781 L 657.480469 356.285156 L 652.175781 337.429688 " fill-opacity="1" fill-rule="nonzero"/><path fill="#fbc81b" d="M 674.027344 209.203125 L 672.066406 224.742188 L 684.550781 202.542969 L 679.386719 199.628906 L 674.027344 209.203125 " fill-opacity="1" fill-rule="nonzero"/><path fill="#fddb19" d="M 661.113281 221.457031 L 675.445312 229.515625 L 681.398438 218.863281 L 667.074219 210.800781 L 661.113281 221.457031 " fill-opacity="1" fill-rule="nonzero"/><path fill="#ef249b" d="M 664.820312 223.546875 L 671.730469 227.433594 L 681.308594 210.347656 L 674.390625 206.453125 L 664.820312 223.546875 " fill-opacity="1" fill-rule="nonzero"/><path fill="#fbc81b" d="M 595.941406 363.800781 L 597.902344 348.257812 L 585.417969 370.457031 L 590.589844 373.371094 L 595.941406 363.800781 " fill-opacity="1" fill-rule="nonzero"/><path fill="#fddb19" d="M 608.863281 351.535156 L 594.527344 343.480469 L 588.570312 354.136719 L 602.902344 362.203125 L 608.863281 351.535156 " fill-opacity="1" fill-rule="nonzero"/><path fill="#ef249b" d="M 605.144531 349.457031 L 598.234375 345.5625 L 588.664062 362.65625 L 595.574219 366.542969 L 605.144531 349.457031 " fill-opacity="1" fill-rule="nonzero"/><path fill="#fbc81b" d="M 709.414062 328.019531 L 693.898438 325.902344 L 715.972656 338.605469 L 718.929688 333.460938 L 709.414062 328.019531 " fill-opacity="1" fill-rule="nonzero"/><path fill="#fddb19" d="M 697.285156 314.976562 L 689.082031 329.230469 L 699.6875 335.296875 L 707.875 321.042969 L 697.285156 314.976562 " fill-opacity="1" fill-rule="nonzero"/><path fill="#ef249b" d="M 695.167969 318.671875 L 691.207031 325.554688 L 708.195312 335.28125 L 712.152344 328.40625 L 695.167969 318.671875 " fill-opacity="1" fill-rule="nonzero"/><path fill="#fbc81b" d="M 557.269531 250.132812 L 572.644531 253.125 L 551.320312 239.191406 L 548.078125 244.15625 L 557.269531 250.132812 " fill-opacity="1" fill-rule="nonzero"/><path fill="#fddb19" d="M 568.632812 263.84375 L 577.636719 250.078125 L 567.398438 243.425781 L 558.398438 257.183594 L 568.632812 263.84375 " fill-opacity="1" fill-rule="nonzero"/><path fill="#ef249b" d="M 570.964844 260.285156 L 575.304688 253.640625 L 558.898438 242.953125 L 554.558594 249.589844 L 570.964844 260.285156 " fill-opacity="1" fill-rule="nonzero"/><path fill="#fddb19" d="M 430.46875 171.972656 L 435.445312 162.957031 L 426.433594 157.980469 L 431.410156 148.957031 L 422.398438 143.976562 L 427.375 134.953125 L 427.191406 134.851562 L 418.273438 129.929688 L 418.089844 129.832031 L 413.109375 138.839844 L 404.105469 133.867188 L 399.117188 142.882812 L 390.105469 137.910156 L 385.117188 146.925781 L 376.066406 141.925781 L 371.082031 150.941406 L 370.621094 151.773438 L 379.6875 156.773438 L 374.707031 165.796875 L 383.722656 170.777344 L 378.734375 179.800781 L 387.75 184.78125 L 382.769531 193.792969 L 382.957031 193.898438 L 391.875 198.820312 L 392.058594 198.921875 L 397.03125 189.90625 L 406.050781 194.886719 L 411.035156 185.863281 L 420.050781 190.84375 L 425.027344 181.828125 L 434.085938 186.832031 L 434.539062 186 L 439.519531 176.976562 L 430.46875 171.972656 " fill-opacity="1" fill-rule="nonzero"/><path fill="#f254b1" d="M 419.457031 156.617188 L 417.695312 150.507812 L 411.59375 152.269531 L 409.832031 146.160156 L 403.738281 147.921875 L 401.980469 141.820312 L 401.84375 141.859375 L 395.8125 143.597656 L 395.691406 143.632812 L 397.453125 149.738281 L 391.351562 151.5 L 393.105469 157.601562 L 387.011719 159.367188 L 388.765625 165.46875 L 382.636719 167.238281 L 384.398438 173.339844 L 384.5625 173.90625 L 390.691406 172.136719 L 392.453125 178.238281 L 398.554688 176.476562 L 400.3125 182.585938 L 406.414062 180.824219 L 408.175781 186.925781 L 408.300781 186.898438 L 414.335938 185.160156 L 414.460938 185.113281 L 412.699219 179.011719 L 418.800781 177.257812 L 417.039062 171.148438 L 423.140625 169.386719 L 421.378906 163.285156 L 427.511719 161.515625 L 427.355469 160.953125 L 425.585938 154.84375 L 419.457031 156.617188 " fill-opacity="1" fill-rule="nonzero"/><path fill="#ef249b" d="M 413.949219 159.585938 L 412.863281 155.824219 L 409.097656 156.910156 L 408.011719 153.140625 L 404.246094 154.226562 L 403.160156 150.464844 L 403.085938 150.480469 L 399.363281 151.558594 L 399.289062 151.578125 L 400.367188 155.347656 L 396.605469 156.425781 L 397.691406 160.203125 L 393.925781 161.285156 L 395.015625 165.046875 L 391.234375 166.148438 L 392.320312 169.90625 L 392.414062 170.257812 L 396.199219 169.164062 L 397.289062 172.933594 L 401.050781 171.847656 L 402.132812 175.609375 L 405.894531 174.523438 L 406.988281 178.292969 L 407.0625 178.269531 L 410.785156 177.191406 L 410.867188 177.167969 L 409.773438 173.410156 L 413.539062 172.324219 L 412.457031 168.554688 L 416.214844 167.46875 L 415.136719 163.703125 L 418.914062 162.609375 L 418.816406 162.265625 L 417.722656 158.5 L 413.949219 159.585938 " fill-opacity="1" fill-rule="nonzero"/><path fill="#14153a" d="M 400.574219 140.246094 L 404.105469 133.867188 L 400.574219 140.246094 " fill-opacity="1" fill-rule="nonzero"/><path fill="#fee946" d="M 405.070312 142.726562 L 400.574219 140.246094 L 404.105469 133.867188 L 408.882812 136.507812 L 405.507812 142.601562 L 405.070312 142.726562 " fill-opacity="1" fill-rule="nonzero"/><path fill="#14153a" d="M 386.582031 144.289062 L 386.574219 144.289062 L 390.105469 137.910156 L 386.582031 144.289062 " fill-opacity="1" fill-rule="nonzero"/><path fill="#fee946" d="M 391.359375 146.925781 L 386.582031 144.289062 L 390.105469 137.910156 L 394.882812 140.550781 L 391.359375 146.925781 " fill-opacity="1" fill-rule="nonzero"/><path fill="#14153a" d="M 414.574219 136.203125 L 418.089844 129.832031 L 414.574219 136.203125 M 422.875 132.472656 L 418.273438 129.929688 L 422.875 132.464844 L 422.875 132.472656 " fill-opacity="1" fill-rule="nonzero"/><path fill="#fee946" d="M 419.351562 138.839844 L 414.574219 136.203125 L 418.089844 129.832031 L 418.273438 129.929688 L 422.875 132.472656 L 419.351562 138.839844 " fill-opacity="1" fill-rule="nonzero"/><path fill="#14153a" d="M 434.085938 186.832031 L 434.539062 186 L 435.542969 184.183594 L 434.539062 186 L 434.085938 186.832031 " fill-opacity="1" fill-rule="nonzero"/><path fill="#fee946" d="M 434.085938 186.832031 L 429.804688 184.46875 L 431.261719 181.828125 L 435.542969 184.183594 L 434.539062 186 L 434.085938 186.832031 " fill-opacity="1" fill-rule="nonzero"/><path fill="#14153a" d="M 392.058594 198.921875 L 391.875 198.820312 L 382.957031 193.898438 L 382.769531 193.792969 L 382.957031 193.898438 L 391.875 198.820312 L 392.058594 198.921875 L 393.515625 196.285156 L 392.058594 198.921875 M 378.734375 179.800781 L 383.675781 170.851562 L 383.648438 170.738281 L 374.707031 165.796875 L 383.648438 170.738281 L 383.675781 170.851562 L 378.734375 179.800781 M 380.847656 144.5625 L 376.066406 141.925781 L 380.847656 144.5625 " fill-opacity="1" fill-rule="nonzero"/><path fill="#fee946" d="M 392.058594 198.921875 L 391.875 198.820312 L 382.957031 193.898438 L 382.769531 193.792969 L 387.75 184.78125 L 378.734375 179.800781 L 383.675781 170.851562 L 384.398438 173.339844 L 384.5625 173.90625 L 388.921875 172.648438 L 384.96875 179.800781 L 393.992188 184.78125 L 389.011719 193.792969 L 389.199219 193.898438 L 393.515625 196.285156 L 392.058594 198.921875 M 383.648438 170.738281 L 374.707031 165.796875 L 379.6875 156.773438 L 370.621094 151.773438 L 371.082031 150.941406 L 376.066406 141.925781 L 380.847656 144.5625 L 377.324219 150.941406 L 376.863281 151.773438 L 385.921875 156.773438 L 380.941406 165.796875 L 383.238281 167.0625 L 382.636719 167.238281 L 383.648438 170.738281 " fill-opacity="1" fill-rule="nonzero"/><path fill="#f792cd" d="M 384.5625 173.90625 L 384.398438 173.339844 L 383.675781 170.851562 L 383.648438 170.738281 L 382.636719 167.238281 L 383.238281 167.0625 L 389.882812 170.738281 L 389.917969 170.851562 L 388.921875 172.648438 L 384.5625 173.90625 " fill-opacity="1" fill-rule="nonzero"/><path fill="#fee946" d="M 420.050781 190.84375 L 415.816406 188.503906 L 417.105469 186.15625 L 417.554688 186.027344 L 421.5 188.199219 L 420.050781 190.84375 " fill-opacity="1" fill-rule="nonzero"/><path fill="#14153a" d="M 406.050781 194.886719 L 407.507812 192.242188 L 407.515625 192.242188 L 406.050781 194.886719 " fill-opacity="1" fill-rule="nonzero"/><path fill="#fee946" d="M 406.050781 194.886719 L 401.816406 192.546875 L 403.273438 189.90625 L 407.507812 192.242188 L 406.050781 194.886719 " fill-opacity="1" fill-rule="nonzero"/><path fill="#fbc81b" d="M 444.875 153.816406 L 435.964844 152.933594 L 449.9375 148.800781 L 450.902344 152.046875 L 444.875 153.816406 " fill-opacity="1" fill-rule="nonzero"/><path fill="#fddb19" d="M 436.398438 159.464844 L 433.722656 150.441406 L 440.433594 148.472656 L 443.101562 157.503906 L 436.398438 159.464844 " fill-opacity="1" fill-rule="nonzero"/><path fill="#ef249b" d="M 435.699219 157.132812 L 434.414062 152.777344 L 445.164062 149.609375 L 446.457031 153.964844 L 435.699219 157.132812 " fill-opacity="1" fill-rule="nonzero"/><path fill="#fbc81b" d="M 367.738281 177.890625 L 373.414062 170.957031 L 360.613281 177.917969 L 362.234375 180.90625 L 367.738281 177.890625 " fill-opacity="1" fill-rule="nonzero"/><path fill="#fddb19" d="M 377.734375 175.882812 L 373.238281 167.609375 L 367.105469 170.96875 L 371.59375 179.234375 L 377.734375 175.882812 " fill-opacity="1" fill-rule="nonzero"/><path fill="#ef249b" d="M 376.566406 173.75 L 374.394531 169.75 L 364.558594 175.117188 L 366.726562 179.109375 L 376.566406 173.75 " fill-opacity="1" fill-rule="nonzero"/><path fill="#fbc81b" d="M 391.96875 124.347656 L 397.46875 131.429688 L 393.53125 117.390625 L 390.269531 118.304688 L 391.96875 124.347656 " fill-opacity="1" fill-rule="nonzero"/><path fill="#fddb19" d="M 391.703125 134.539062 L 400.761719 131.996094 L 398.859375 125.269531 L 389.800781 127.8125 L 391.703125 134.539062 " fill-opacity="1" fill-rule="nonzero"/><path fill="#ef249b" d="M 394.050781 133.882812 L 398.417969 132.65625 L 395.378906 121.859375 L 391.003906 123.09375 L 394.050781 133.882812 " fill-opacity="1" fill-rule="nonzero"/><path fill="#fbc81b" d="M 417.761719 201.726562 L 412.269531 194.640625 L 416.199219 208.679688 L 419.464844 207.765625 L 417.761719 201.726562 " fill-opacity="1" fill-rule="nonzero"/><path fill="#fddb19" d="M 418.027344 191.535156 L 408.972656 194.070312 L 410.875 200.796875 L 419.929688 198.261719 L 418.027344 191.535156 " fill-opacity="1" fill-rule="nonzero"/><path fill="#ef249b" d="M 415.6875 192.191406 L 411.3125 193.414062 L 414.351562 204.207031 L 418.71875 202.980469 L 415.6875 192.191406 " fill-opacity="1" fill-rule="nonzero"/><g clip-path="url(#4964204c69)"><path fill="#fbc81b" d="M 428.203125 118.789062 L 427.070312 127.683594 L 434.21875 114.976562 L 431.253906 113.3125 L 428.203125 118.789062 " fill-opacity="1" fill-rule="nonzero"/></g><path fill="#fddb19" d="M 420.800781 125.804688 L 429.003906 130.421875 L 432.414062 124.320312 L 424.210938 119.703125 L 420.800781 125.804688 " fill-opacity="1" fill-rule="nonzero"/><path fill="#ef249b" d="M 422.925781 127 L 426.886719 129.222656 L 432.363281 119.441406 L 428.402344 117.21875 L 422.925781 127 " fill-opacity="1" fill-rule="nonzero"/><path fill="#fbc81b" d="M 383.5 207.285156 L 384.621094 198.386719 L 377.480469 211.097656 L 380.4375 212.761719 L 383.5 207.285156 " fill-opacity="1" fill-rule="nonzero"/><path fill="#fddb19" d="M 390.890625 200.261719 L 382.6875 195.652344 L 379.277344 201.753906 L 387.480469 206.363281 L 390.890625 200.261719 " fill-opacity="1" fill-rule="nonzero"/><path fill="#ef249b" d="M 388.765625 199.070312 L 384.804688 196.84375 L 379.332031 206.621094 L 383.289062 208.851562 L 388.765625 199.070312 " fill-opacity="1" fill-rule="nonzero"/><path fill="#fbc81b" d="M 448.449219 186.800781 L 439.570312 185.589844 L 452.203125 192.867188 L 453.894531 189.914062 L 448.449219 186.800781 " fill-opacity="1" fill-rule="nonzero"/><path fill="#fddb19" d="M 441.503906 179.339844 L 436.8125 187.492188 L 442.882812 190.96875 L 447.574219 182.808594 L 441.503906 179.339844 " fill-opacity="1" fill-rule="nonzero"/><path fill="#ef249b" d="M 440.289062 181.449219 L 438.03125 185.390625 L 447.75 190.964844 L 450.015625 187.023438 L 440.289062 181.449219 " fill-opacity="1" fill-rule="nonzero"/><path fill="#fbc81b" d="M 361.363281 142.214844 L 370.160156 143.933594 L 357.960938 135.957031 L 356.101562 138.796875 L 361.363281 142.214844 " fill-opacity="1" fill-rule="nonzero"/><path fill="#fddb19" d="M 367.863281 150.0625 L 373.015625 142.183594 L 367.160156 138.378906 L 362.007812 146.257812 L 367.863281 150.0625 " fill-opacity="1" fill-rule="nonzero"/><path fill="#ef249b" d="M 369.195312 148.027344 L 371.683594 144.230469 L 362.292969 138.105469 L 359.808594 141.902344 L 369.195312 148.027344 " fill-opacity="1" fill-rule="nonzero"/></svg>